<?xml version="1.0" encoding="UTF-8"?>
<svg id="katman_1" data-name="katman 1" xmlns="http://www.w3.org/2000/svg" width="3840" height="2160" viewBox="0 0 1920 1080">
  <defs>
    <style>
      .cls-1 {
        fill: #632800;
      }
    </style>
  </defs>
  <g>
    <path class="cls-1" d="M-.15,423.28h148.44c100.94,0,166.79,61.53,166.79,188.38s-65.85,189.46-166.79,189.46H-.15v-377.83ZM129.39,688.84c34.54-1.62,48.04-23.75,48.04-79.35s-13.49-71.79-48.04-73.41v152.75Z"/>
    <path class="cls-1" d="M336.66,423.28h270.42v121.45h-140.88v53.44h124.69v49.12l-124.69-13.49v45.88h140.88v121.45h-270.42v-377.83Z"/>
    <path class="cls-1" d="M634.06,536.63v-4.32c0-41.02,23.21-70.17,57.75-89.6,34.54-19.43,78.27-27.53,114.43-27.53,77.73,0,141.96,34.01,172.72,103.63l-124.69,58.83c-8.1-32.39-26.45-43.72-47.5-43.72-15.11,0-37.24,4.86-38.86,23.75v1.62c0,32.93,50.2,28.07,106.33,30.77,54.52,2.7,109.57,15.65,109.57,90.14,0,90.14-82.58,129-186.22,129-92.84,0-158.69-46.96-168.95-147.9l122.53-18.35c1.62,33.47,28.07,44.8,53.44,47.5,2.7.54,5.4.54,8.1.54,19.97,0,32.39-10.25,32.39-27.53v-2.7c-5.94-55.06-205.11,15.65-211.05-124.15Z"/>
    <path class="cls-1" d="M1005.41,423.28h129.54v377.83h-129.54v-377.83Z"/>
    <path class="cls-1" d="M1156.54,612.2c0-132.24,84.74-197.01,188.38-197.01,86.36,0,158.15,42.64,182.44,130.62l-134.4,31.85c-8.1-32.39-26.45-43.72-47.5-43.72-28.07,0-51.28,25.91-51.28,78.27s25.37,78.27,57.21,78.27,45.88-18.35,48.04-60.99h-88.52v-38.32h220.76v38.32c.54,4.32.54,8.64.54,12.41,0,51.82-17.27,93.92-50.2,123.61-32.93,29.69-78.81,43.72-130.08,43.72-107.41,0-195.4-64.77-195.4-197.01Z"/>
    <path class="cls-1" d="M1553.8,423.28h156.53l79.34,143.58v-143.58h129.54v377.83h-120.37l-115.51-200.25v200.25h-129.54v-377.83Z"/>
  </g>
  <g>
    <path d="M49.47,874v-24.89h4.62v20.98h13.02v3.91h-17.64Z"/>
    <path d="M81.98,874.35c-1.92,0-3.71-.32-5.35-.96-1.65-.64-3.08-1.54-4.29-2.7-1.21-1.16-2.15-2.52-2.81-4.07-.66-1.55-1-3.24-1-5.07s.33-3.55,1-5.1c.66-1.55,1.6-2.9,2.81-4.05s2.63-2.04,4.27-2.69,3.43-.96,5.37-.96,3.7.31,5.33.94c1.64.63,3.05,1.52,4.25,2.67s2.13,2.51,2.79,4.07c.66,1.56,1,3.27,1,5.12s-.33,3.55-1,5.1c-.66,1.55-1.59,2.91-2.79,4.07-1.2,1.16-2.61,2.06-4.25,2.69-1.64.63-3.41.94-5.33.94ZM81.98,870.3c1.26,0,2.41-.21,3.47-.64,1.05-.43,1.97-1.03,2.76-1.81.78-.78,1.39-1.71,1.83-2.77s.66-2.24.66-3.52-.21-2.45-.64-3.52-1.04-1.99-1.83-2.77c-.79-.78-1.72-1.39-2.77-1.81-1.06-.43-2.21-.64-3.47-.64s-2.42.21-3.5.64c-1.08.43-2.01,1.04-2.79,1.83-.78.79-1.4,1.72-1.85,2.77-.45,1.06-.67,2.22-.67,3.5s.22,2.42.67,3.49,1.07,2,1.85,2.79c.78.79,1.71,1.4,2.79,1.83,1.08.43,2.25.64,3.5.64Z"/>
    <path d="M111.89,874.35c-1.94,0-3.73-.31-5.35-.94-1.62-.63-3.04-1.52-4.25-2.69-1.21-1.16-2.15-2.51-2.81-4.05-.66-1.54-1-3.25-1-5.12s.33-3.58,1-5.12c.66-1.54,1.61-2.89,2.83-4.05,1.22-1.16,2.64-2.06,4.27-2.69,1.62-.63,3.43-.94,5.42-.94s3.98.34,5.67,1.03c1.7.69,3.12,1.7,4.29,3.02l-2.92,2.85c-.97-.97-2.02-1.69-3.15-2.15-1.13-.46-2.36-.69-3.72-.69s-2.54.21-3.65.64-2.06,1.03-2.86,1.81c-.81.78-1.44,1.71-1.89,2.77s-.67,2.24-.67,3.52.22,2.42.67,3.5c.45,1.08,1.08,2.01,1.89,2.79.81.78,1.75,1.39,2.84,1.81,1.09.43,2.3.64,3.63.64,1.23,0,2.42-.2,3.57-.59,1.15-.39,2.25-1.05,3.29-1.97l2.6,3.45c-1.28,1.04-2.77,1.83-4.48,2.37-1.71.53-3.45.8-5.23.8ZM121.6,871.19l-4.34-.6v-9.28h4.34v9.89Z"/>
    <path d="M139.38,874.35c-1.92,0-3.71-.32-5.35-.96-1.65-.64-3.08-1.54-4.29-2.7-1.21-1.16-2.15-2.52-2.81-4.07-.66-1.55-1-3.24-1-5.07s.33-3.55,1-5.1c.66-1.55,1.6-2.9,2.81-4.05s2.63-2.04,4.27-2.69,3.43-.96,5.37-.96,3.7.31,5.33.94c1.64.63,3.05,1.52,4.25,2.67s2.13,2.51,2.79,4.07c.66,1.56,1,3.27,1,5.12s-.33,3.55-1,5.1c-.66,1.55-1.59,2.91-2.79,4.07-1.2,1.16-2.61,2.06-4.25,2.69-1.64.63-3.41.94-5.33.94ZM139.38,870.3c1.26,0,2.41-.21,3.47-.64,1.05-.43,1.97-1.03,2.76-1.81.78-.78,1.39-1.71,1.83-2.77s.66-2.24.66-3.52-.21-2.45-.64-3.52-1.04-1.99-1.83-2.77c-.79-.78-1.72-1.39-2.77-1.81-1.06-.43-2.21-.64-3.47-.64s-2.42.21-3.5.64c-1.08.43-2.01,1.04-2.79,1.83-.78.79-1.4,1.72-1.85,2.77-.45,1.06-.67,2.22-.67,3.5s.22,2.42.67,3.49,1.07,2,1.85,2.79c.78.79,1.71,1.4,2.79,1.83,1.08.43,2.25.64,3.5.64Z"/>
    <path d="M170.46,865.39c-.69,0-1.33-.17-1.92-.52-.59-.34-1.06-.81-1.41-1.39s-.52-1.25-.52-2.01.17-1.43.52-2.01c.34-.58.81-1.04,1.41-1.37.59-.33,1.23-.5,1.92-.5s1.32.17,1.9.5c.58.33,1.04.79,1.39,1.37.34.58.52,1.25.52,2.01s-.17,1.43-.52,2.01c-.34.58-.81,1.04-1.39,1.39-.58.34-1.21.52-1.9.52Z"/>
    <path d="M189.91,874v-24.89h11.7c2.96,0,5.23.59,6.79,1.76,1.56,1.17,2.35,2.74,2.35,4.71,0,1.33-.31,2.46-.92,3.4-.62.94-1.44,1.66-2.47,2.17s-2.15.76-3.36.76l.64-1.28c1.4,0,2.65.25,3.77.76,1.11.51,1.99,1.25,2.63,2.22.64.97.96,2.18.96,3.63,0,2.13-.81,3.79-2.44,4.98-1.62,1.19-4.04,1.78-7.24,1.78h-12.41ZM194.53,870.37h7.5c1.71,0,3.02-.28,3.95-.85.92-.57,1.39-1.48,1.39-2.74s-.46-2.14-1.39-2.72c-.92-.58-2.24-.87-3.95-.87h-7.86v-3.59h6.9c1.59,0,2.82-.28,3.7-.85.88-.57,1.32-1.42,1.32-2.56s-.44-2.03-1.32-2.6c-.88-.57-2.11-.85-3.7-.85h-6.54v17.64Z"/>
    <path d="M216.97,874v-24.89h10.21c3.32,0,5.92.79,7.81,2.37,1.88,1.58,2.83,3.74,2.83,6.49,0,1.83-.43,3.39-1.28,4.69-.85,1.3-2.07,2.31-3.64,3.02-1.58.71-3.47,1.07-5.67,1.07h-7.65l2.03-2.06v9.32h-4.62ZM221.6,865.18l-2.03-2.24h7.43c2.04,0,3.57-.44,4.61-1.32,1.03-.88,1.55-2.1,1.55-3.66s-.52-2.78-1.55-3.65c-1.03-.87-2.57-1.3-4.61-1.3h-7.43l2.03-2.28v14.44ZM233.26,874l-6.29-9.03h4.94l6.33,9.03h-4.98Z"/>
    <path d="M239.45,874l11.2-24.89h4.55l11.24,24.89h-4.87l-9.6-22.44h1.85l-9.64,22.44h-4.73ZM244.61,868.24l1.28-3.63h13.41l1.24,3.63h-15.93Z"/>
    <path d="M269.61,874v-24.89h3.81l15.61,19.2h-1.88v-19.2h4.55v24.89h-3.81l-15.58-19.2h1.88v19.2h-4.59Z"/>
    <path d="M298.41,874v-24.89h10.92c2.66,0,5.01.52,7.06,1.55s3.65,2.48,4.78,4.36c1.14,1.87,1.71,4.05,1.71,6.54s-.57,4.67-1.71,6.54-2.73,3.33-4.78,4.36-4.4,1.55-7.06,1.55h-10.92ZM303.04,870.08h6.01c1.87,0,3.49-.36,4.85-1.07,1.36-.71,2.43-1.71,3.2-2.99s1.16-2.77,1.16-4.48-.39-3.26-1.16-4.52c-.77-1.26-1.84-2.24-3.2-2.95-1.36-.71-2.98-1.07-4.85-1.07h-6.01v17.07Z"/>
    <path d="M327.79,874v-24.89h4.62v24.89h-4.62Z"/>
    <path d="M339.13,874v-24.89h3.81l15.61,19.2h-1.88v-19.2h4.55v24.89h-3.81l-15.58-19.2h1.88v19.2h-4.59Z"/>
    <path d="M379.57,874.35c-1.94,0-3.73-.31-5.35-.94-1.62-.63-3.04-1.52-4.25-2.69-1.21-1.16-2.15-2.51-2.81-4.05-.66-1.54-1-3.25-1-5.12s.33-3.58,1-5.12c.66-1.54,1.61-2.89,2.83-4.05,1.22-1.16,2.64-2.06,4.27-2.69,1.62-.63,3.43-.94,5.42-.94s3.98.34,5.67,1.03c1.7.69,3.12,1.7,4.29,3.02l-2.92,2.85c-.97-.97-2.02-1.69-3.15-2.15-1.13-.46-2.36-.69-3.72-.69s-2.54.21-3.65.64-2.06,1.03-2.86,1.81c-.81.78-1.44,1.71-1.89,2.77s-.67,2.24-.67,3.52.22,2.42.67,3.5c.45,1.08,1.08,2.01,1.89,2.79.81.78,1.75,1.39,2.84,1.81,1.09.43,2.3.64,3.63.64,1.23,0,2.42-.2,3.57-.59,1.15-.39,2.25-1.05,3.29-1.97l2.6,3.45c-1.28,1.04-2.77,1.83-4.48,2.37-1.71.53-3.45.8-5.23.8ZM389.28,871.19l-4.34-.6v-9.28h4.34v9.89Z"/>
    <path d="M408.2,865.39c-.69,0-1.33-.17-1.92-.52-.59-.34-1.06-.81-1.41-1.39s-.52-1.25-.52-2.01.17-1.43.52-2.01c.34-.58.81-1.04,1.41-1.37.59-.33,1.23-.5,1.92-.5s1.32.17,1.9.5c.58.33,1.04.79,1.39,1.37.34.58.52,1.25.52,2.01s-.17,1.43-.52,2.01c-.34.58-.81,1.04-1.39,1.39-.58.34-1.21.52-1.9.52Z"/>
    <path d="M427.65,874v-24.89h3.81l10.88,18.17h-1.99l10.7-18.17h3.81l.07,24.89h-4.45v-18.03h.89l-9.03,15.22h-2.1l-9.25-15.22h1.07v18.03h-4.41Z"/>
    <path d="M473.27,874.35c-1.92,0-3.71-.32-5.35-.96-1.65-.64-3.08-1.54-4.29-2.7-1.21-1.16-2.15-2.52-2.81-4.07-.66-1.55-1-3.24-1-5.07s.33-3.55,1-5.1c.66-1.55,1.6-2.9,2.81-4.05s2.63-2.04,4.27-2.69,3.43-.96,5.37-.96,3.7.31,5.33.94c1.64.63,3.05,1.52,4.25,2.67s2.13,2.51,2.79,4.07c.66,1.56,1,3.27,1,5.12s-.33,3.55-1,5.1c-.66,1.55-1.59,2.91-2.79,4.07-1.2,1.16-2.61,2.06-4.25,2.69-1.64.63-3.41.94-5.33.94ZM473.27,870.3c1.26,0,2.41-.21,3.47-.64,1.05-.43,1.97-1.03,2.76-1.81.78-.78,1.39-1.71,1.83-2.77s.66-2.24.66-3.52-.21-2.45-.64-3.52-1.04-1.99-1.83-2.77c-.79-.78-1.72-1.39-2.77-1.81-1.06-.43-2.21-.64-3.47-.64s-2.42.21-3.5.64c-1.08.43-2.01,1.04-2.79,1.83-.78.79-1.4,1.72-1.85,2.77-.45,1.06-.67,2.22-.67,3.5s.22,2.42.67,3.49,1.07,2,1.85,2.79c.78.79,1.71,1.4,2.79,1.83,1.08.43,2.25.64,3.5.64Z"/>
    <path d="M496.25,874v-20.98h-8.25v-3.91h21.12v3.91h-8.25v20.98h-4.62Z"/>
    <path d="M512.61,874v-24.89h4.62v24.89h-4.62Z"/>
    <path d="M535.62,874.35c-1.92,0-3.71-.32-5.35-.96-1.65-.64-3.08-1.54-4.29-2.7-1.21-1.16-2.15-2.52-2.81-4.07-.66-1.55-1-3.24-1-5.07s.33-3.55,1-5.1c.66-1.55,1.6-2.9,2.81-4.05s2.63-2.04,4.27-2.69,3.43-.96,5.37-.96,3.7.31,5.33.94c1.64.63,3.05,1.52,4.25,2.67s2.13,2.51,2.79,4.07c.66,1.56,1,3.27,1,5.12s-.33,3.55-1,5.1c-.66,1.55-1.59,2.91-2.79,4.07-1.2,1.16-2.61,2.06-4.25,2.69-1.64.63-3.41.94-5.33.94ZM535.62,870.3c1.26,0,2.41-.21,3.47-.64,1.05-.43,1.97-1.03,2.76-1.81.78-.78,1.39-1.71,1.83-2.77s.66-2.24.66-3.52-.21-2.45-.64-3.52-1.04-1.99-1.83-2.77c-.79-.78-1.72-1.39-2.77-1.81-1.06-.43-2.21-.64-3.47-.64s-2.42.21-3.5.64c-1.08.43-2.01,1.04-2.79,1.83-.78.79-1.4,1.72-1.85,2.77-.45,1.06-.67,2.22-.67,3.5s.22,2.42.67,3.49,1.07,2,1.85,2.79c.78.79,1.71,1.4,2.79,1.83,1.08.43,2.25.64,3.5.64Z"/>
    <path d="M553.9,874v-24.89h3.81l15.61,19.2h-1.88v-19.2h4.55v24.89h-3.81l-15.58-19.2h1.88v19.2h-4.59Z"/>
    <path d="M595.5,865.39c-.69,0-1.33-.17-1.92-.52-.59-.34-1.06-.81-1.41-1.39s-.52-1.25-.52-2.01.17-1.43.52-2.01c.34-.58.81-1.04,1.41-1.37.59-.33,1.23-.5,1.92-.5s1.32.17,1.9.5c.58.33,1.04.79,1.39,1.37.34.58.52,1.25.52,2.01s-.17,1.43-.52,2.01c-.34.58-.81,1.04-1.39,1.39-.58.34-1.21.52-1.9.52Z"/>
    <path d="M620.97,874.35c-1.73,0-3.43-.25-5.1-.75-1.67-.5-3.08-1.21-4.21-2.13l1.96-3.59c.9.73,2,1.33,3.31,1.78,1.3.45,2.64.68,4.02.68,1.64,0,2.93-.34,3.88-1.01.95-.68,1.42-1.59,1.42-2.76s-.43-2.04-1.3-2.7c-.87-.66-2.25-1-4.14-1h-2.28v-3.17l7.11-8.46.64,1.78h-13.37v-3.91h16.93v3.09l-7.11,8.43-2.42-1.39h1.42c3.04,0,5.32.68,6.85,2.04,1.53,1.36,2.29,3.11,2.29,5.25,0,1.4-.36,2.7-1.07,3.89-.71,1.2-1.8,2.15-3.25,2.86-1.46.71-3.31,1.07-5.57,1.07Z"/>
    <path d="M635.65,874v-24.89h10.92c2.66,0,5.01.52,7.06,1.55s3.65,2.48,4.78,4.36c1.14,1.87,1.71,4.05,1.71,6.54s-.57,4.67-1.71,6.54-2.73,3.33-4.78,4.36-4.4,1.55-7.06,1.55h-10.92ZM640.28,870.08h6.01c1.87,0,3.49-.36,4.85-1.07,1.36-.71,2.43-1.71,3.2-2.99s1.16-2.77,1.16-4.48-.39-3.26-1.16-4.52c-.77-1.26-1.84-2.24-3.2-2.95-1.36-.71-2.98-1.07-4.85-1.07h-6.01v17.07Z"/>
    <path d="M677.83,865.39c-.69,0-1.33-.17-1.92-.52-.59-.34-1.06-.81-1.41-1.39s-.52-1.25-.52-2.01.17-1.43.52-2.01c.34-.58.81-1.04,1.41-1.37.59-.33,1.23-.5,1.92-.5s1.32.17,1.9.5c.58.33,1.04.79,1.39,1.37.34.58.52,1.25.52,2.01s-.17,1.43-.52,2.01c-.34.58-.81,1.04-1.39,1.39-.58.34-1.21.52-1.9.52Z"/>
    <path d="M704.64,874l-10.88-24.89h5.01l9.71,22.51h-2.92l9.89-22.51h4.59l-10.85,24.89h-4.55Z"/>
    <path d="M722.67,874v-24.89h4.62v24.89h-4.62Z"/>
    <path d="M734.02,874v-24.89h10.92c2.66,0,5.01.52,7.06,1.55s3.65,2.48,4.78,4.36c1.14,1.87,1.71,4.05,1.71,6.54s-.57,4.67-1.71,6.54-2.73,3.33-4.78,4.36-4.4,1.55-7.06,1.55h-10.92ZM738.64,870.08h6.01c1.87,0,3.49-.36,4.85-1.07,1.36-.71,2.43-1.71,3.2-2.99s1.16-2.77,1.16-4.48-.39-3.26-1.16-4.52c-.77-1.26-1.84-2.24-3.2-2.95-1.36-.71-2.98-1.07-4.85-1.07h-6.01v17.07Z"/>
    <path d="M763.39,874v-24.89h18.17v3.91h-13.55v17.07h14.05v3.91h-18.67ZM767.66,863.26v-3.81h12.38v3.81h-12.38Z"/>
    <path d="M798.89,874.35c-1.92,0-3.71-.32-5.35-.96-1.65-.64-3.08-1.54-4.29-2.7-1.21-1.16-2.15-2.52-2.81-4.07-.66-1.55-1-3.24-1-5.07s.33-3.55,1-5.1c.66-1.55,1.6-2.9,2.81-4.05s2.63-2.04,4.27-2.69,3.43-.96,5.37-.96,3.7.31,5.33.94c1.64.63,3.05,1.52,4.25,2.67s2.13,2.51,2.79,4.07c.66,1.56,1,3.27,1,5.12s-.33,3.55-1,5.1c-.66,1.55-1.59,2.91-2.79,4.07-1.2,1.16-2.61,2.06-4.25,2.69-1.64.63-3.41.94-5.33.94ZM798.89,870.3c1.26,0,2.41-.21,3.47-.64,1.05-.43,1.97-1.03,2.76-1.81.78-.78,1.39-1.71,1.83-2.77s.66-2.24.66-3.52-.21-2.45-.64-3.52-1.04-1.99-1.83-2.77c-.79-.78-1.72-1.39-2.77-1.81-1.06-.43-2.21-.64-3.47-.64s-2.42.21-3.5.64c-1.08.43-2.01,1.04-2.79,1.83-.78.79-1.4,1.72-1.85,2.77-.45,1.06-.67,2.22-.67,3.5s.22,2.42.67,3.49,1.07,2,1.85,2.79c.78.79,1.71,1.4,2.79,1.83,1.08.43,2.25.64,3.5.64Z"/>
    <path d="M829.97,865.39c-.69,0-1.33-.17-1.92-.52-.59-.34-1.06-.81-1.41-1.39s-.52-1.25-.52-2.01.17-1.43.52-2.01c.34-.58.81-1.04,1.41-1.37.59-.33,1.23-.5,1.92-.5s1.32.17,1.9.5c.58.33,1.04.79,1.39,1.37.34.58.52,1.25.52,2.01s-.17,1.43-.52,2.01c-.34.58-.81,1.04-1.39,1.39-.58.34-1.21.52-1.9.52Z"/>
    <path d="M860.09,874.35c-3.39,0-6.05-.96-7.98-2.88-1.93-1.92-2.9-4.71-2.9-8.36v-14.01h4.62v13.87c0,2.56.55,4.42,1.65,5.58,1.1,1.16,2.66,1.74,4.68,1.74s3.57-.58,4.66-1.74c1.09-1.16,1.64-3.02,1.64-5.58v-13.87h4.55v14.01c0,3.65-.97,6.44-2.9,8.36s-4.61,2.88-8.02,2.88Z"/>
    <path d="M877.48,874v-24.89h4.62v24.89h-4.62Z"/>
    <path d="M884.38,877.55l11.74-33.5h4.02l-11.74,33.5h-4.02Z"/>
    <path d="M912.69,874.35c-3.39,0-6.05-.96-7.98-2.88-1.93-1.92-2.9-4.71-2.9-8.36v-14.01h4.62v13.87c0,2.56.55,4.42,1.65,5.58,1.1,1.16,2.66,1.74,4.68,1.74s3.57-.58,4.66-1.74c1.09-1.16,1.64-3.02,1.64-5.58v-13.87h4.55v14.01c0,3.65-.97,6.44-2.9,8.36s-4.61,2.88-8.02,2.88Z"/>
    <path d="M926.7,874l10.49-14.47v3.52l-10.03-13.94h5.26l7.47,10.28-2.17.04,7.36-10.31h5.01l-9.92,13.69v-3.34l10.53,14.55h-5.3l-7.82-10.95h2.1l-7.72,10.95h-5.26Z"/>
    <path d="M967.17,865.39c-.69,0-1.33-.17-1.92-.52-.59-.34-1.06-.81-1.41-1.39s-.52-1.25-.52-2.01.17-1.43.52-2.01c.34-.58.81-1.04,1.41-1.37.59-.33,1.23-.5,1.92-.5s1.32.17,1.9.5c.58.33,1.04.79,1.39,1.37.34.58.52,1.25.52,2.01s-.17,1.43-.52,2.01c-.34.58-.81,1.04-1.39,1.39-.58.34-1.21.52-1.9.52Z"/>
    <path d="M992.49,874l-8.25-24.89h4.8l7.36,22.51h-2.38l7.65-22.51h4.27l7.43,22.51h-2.31l7.54-22.51h4.41l-8.25,24.89h-4.91l-6.79-20.31h1.28l-6.86,20.31h-4.98Z"/>
    <path d="M1026.77,874v-24.89h18.17v3.91h-13.55v17.07h14.05v3.91h-18.67ZM1031.04,863.26v-3.81h12.38v3.81h-12.38Z"/>
    <path d="M1050.6,874v-24.89h11.7c2.96,0,5.23.59,6.79,1.76,1.56,1.17,2.35,2.74,2.35,4.71,0,1.33-.31,2.46-.92,3.4-.62.94-1.44,1.66-2.47,2.17s-2.15.76-3.36.76l.64-1.28c1.4,0,2.65.25,3.77.76,1.11.51,1.99,1.25,2.63,2.22.64.97.96,2.18.96,3.63,0,2.13-.81,3.79-2.44,4.98-1.62,1.19-4.04,1.78-7.24,1.78h-12.41ZM1055.22,870.37h7.5c1.71,0,3.02-.28,3.95-.85.92-.57,1.39-1.48,1.39-2.74s-.46-2.14-1.39-2.72c-.92-.58-2.24-.87-3.95-.87h-7.86v-3.59h6.9c1.59,0,2.82-.28,3.7-.85.88-.57,1.32-1.42,1.32-2.56s-.44-2.03-1.32-2.6c-.88-.57-2.11-.85-3.7-.85h-6.54v17.64Z"/>
    <path d="M1087.48,874v-24.89h10.92c2.66,0,5.01.52,7.06,1.55s3.65,2.48,4.78,4.36c1.14,1.87,1.71,4.05,1.71,6.54s-.57,4.67-1.71,6.54-2.73,3.33-4.78,4.36-4.4,1.55-7.06,1.55h-10.92ZM1092.1,870.08h6.01c1.87,0,3.49-.36,4.85-1.07,1.36-.71,2.43-1.71,3.2-2.99s1.16-2.77,1.16-4.48-.39-3.26-1.16-4.52c-.77-1.26-1.84-2.24-3.2-2.95-1.36-.71-2.98-1.07-4.85-1.07h-6.01v17.07Z"/>
    <path d="M1116.85,874v-24.89h18.17v3.91h-13.55v17.07h14.05v3.91h-18.67ZM1121.12,863.26v-3.81h12.38v3.81h-12.38Z"/>
    <path d="M1147.69,874l-10.88-24.89h5.01l9.71,22.51h-2.92l9.89-22.51h4.59l-10.85,24.89h-4.55Z"/>
    <path d="M1179.05,865.39c-.69,0-1.33-.17-1.92-.52-.59-.34-1.06-.81-1.41-1.39s-.52-1.25-.52-2.01.17-1.43.52-2.01c.34-.58.81-1.04,1.41-1.37.59-.33,1.23-.5,1.92-.5s1.32.17,1.9.5c.58.33,1.04.79,1.39,1.37.34.58.52,1.25.52,2.01s-.17,1.43-.52,2.01c-.34.58-.81,1.04-1.39,1.39-.58.34-1.21.52-1.9.52Z"/>
    <path d="M1194.98,874l11.2-24.89h4.55l11.24,24.89h-4.87l-9.6-22.44h1.85l-9.64,22.44h-4.73ZM1200.14,868.24l1.28-3.63h13.41l1.24,3.63h-15.93Z"/>
    <path d="M1235.28,874.35c-3.39,0-6.05-.96-7.98-2.88-1.93-1.92-2.9-4.71-2.9-8.36v-14.01h4.62v13.87c0,2.56.55,4.42,1.65,5.58,1.1,1.16,2.66,1.74,4.68,1.74s3.57-.58,4.66-1.74c1.09-1.16,1.64-3.02,1.64-5.58v-13.87h4.55v14.01c0,3.65-.97,6.44-2.9,8.36s-4.61,2.88-8.02,2.88Z"/>
    <path d="M1257.25,874v-20.98h-8.25v-3.91h21.12v3.91h-8.25v20.98h-4.62Z"/>
    <path d="M1284.92,874.35c-1.92,0-3.71-.32-5.35-.96-1.65-.64-3.08-1.54-4.29-2.7-1.21-1.16-2.15-2.52-2.81-4.07-.66-1.55-1-3.24-1-5.07s.33-3.55,1-5.1c.66-1.55,1.6-2.9,2.81-4.05s2.63-2.04,4.27-2.69,3.43-.96,5.37-.96,3.7.31,5.33.94c1.64.63,3.05,1.52,4.25,2.67s2.13,2.51,2.79,4.07c.66,1.56,1,3.27,1,5.12s-.33,3.55-1,5.1c-.66,1.55-1.59,2.91-2.79,4.07-1.2,1.16-2.61,2.06-4.25,2.69-1.64.63-3.41.94-5.33.94ZM1284.92,870.3c1.26,0,2.41-.21,3.47-.64,1.05-.43,1.97-1.03,2.76-1.81.78-.78,1.39-1.71,1.83-2.77s.66-2.24.66-3.52-.21-2.45-.64-3.52-1.04-1.99-1.83-2.77c-.79-.78-1.72-1.39-2.77-1.81-1.06-.43-2.21-.64-3.47-.64s-2.42.21-3.5.64c-1.08.43-2.01,1.04-2.79,1.83-.78.79-1.4,1.72-1.85,2.77-.45,1.06-.67,2.22-.67,3.5s.22,2.42.67,3.49,1.07,2,1.85,2.79c.78.79,1.71,1.4,2.79,1.83,1.08.43,2.25.64,3.5.64Z"/>
    <path d="M1303.2,874v-24.89h3.81l10.88,18.17h-1.99l10.7-18.17h3.81l.07,24.89h-4.45v-18.03h.89l-9.03,15.22h-2.1l-9.25-15.22h1.07v18.03h-4.41Z"/>
    <path d="M1333.64,874l11.2-24.89h4.55l11.24,24.89h-4.87l-9.6-22.44h1.85l-9.64,22.44h-4.73ZM1338.8,868.24l1.28-3.63h13.41l1.24,3.63h-15.93Z"/>
    <path d="M1367.61,874v-20.98h-8.25v-3.91h21.12v3.91h-8.25v20.98h-4.62Z"/>
    <path d="M1383.96,874v-24.89h4.62v24.89h-4.62Z"/>
    <path d="M1406.97,874.35c-1.92,0-3.71-.32-5.35-.96-1.65-.64-3.08-1.54-4.29-2.7-1.21-1.16-2.15-2.52-2.81-4.07-.66-1.55-1-3.24-1-5.07s.33-3.55,1-5.1c.66-1.55,1.6-2.9,2.81-4.05s2.63-2.04,4.27-2.69,3.43-.96,5.37-.96,3.7.31,5.33.94c1.64.63,3.05,1.52,4.25,2.67s2.13,2.51,2.79,4.07c.66,1.56,1,3.27,1,5.12s-.33,3.55-1,5.1c-.66,1.55-1.59,2.91-2.79,4.07-1.2,1.16-2.61,2.06-4.25,2.69-1.64.63-3.41.94-5.33.94ZM1406.97,870.3c1.26,0,2.41-.21,3.47-.64,1.05-.43,1.97-1.03,2.76-1.81.78-.78,1.39-1.71,1.83-2.77s.66-2.24.66-3.52-.21-2.45-.64-3.52-1.04-1.99-1.83-2.77c-.79-.78-1.72-1.39-2.77-1.81-1.06-.43-2.21-.64-3.47-.64s-2.42.21-3.5.64c-1.08.43-2.01,1.04-2.79,1.83-.78.79-1.4,1.72-1.85,2.77-.45,1.06-.67,2.22-.67,3.5s.22,2.42.67,3.49,1.07,2,1.85,2.79c.78.79,1.71,1.4,2.79,1.83,1.08.43,2.25.64,3.5.64Z"/>
    <path d="M1425.25,874v-24.89h3.81l15.61,19.2h-1.88v-19.2h4.55v24.89h-3.81l-15.58-19.2h1.88v19.2h-4.59Z"/>
    <path d="M1466.86,865.39c-.69,0-1.33-.17-1.92-.52-.59-.34-1.06-.81-1.41-1.39s-.52-1.25-.52-2.01.17-1.43.52-2.01c.34-.58.81-1.04,1.41-1.37.59-.33,1.23-.5,1.92-.5s1.32.17,1.9.5c.58.33,1.04.79,1.39,1.37.34.58.52,1.25.52,2.01s-.17,1.43-.52,2.01c-.34.58-.81,1.04-1.39,1.39-.58.34-1.21.52-1.9.52Z"/>
    <path d="M1486.31,874v-24.89h3.81l10.88,18.17h-1.99l10.7-18.17h3.81l.07,24.89h-4.45v-18.03h.89l-9.03,15.22h-2.1l-9.25-15.22h1.07v18.03h-4.41Z"/>
    <path d="M1530.95,874.35c-3.39,0-6.05-.96-7.98-2.88-1.93-1.92-2.9-4.71-2.9-8.36v-14.01h4.62v13.87c0,2.56.55,4.42,1.65,5.58,1.1,1.16,2.66,1.74,4.68,1.74s3.57-.58,4.66-1.74c1.09-1.16,1.64-3.02,1.64-5.58v-13.87h4.55v14.01c0,3.65-.97,6.44-2.9,8.36s-4.61,2.88-8.02,2.88Z"/>
    <path d="M1556.05,874.35c-1.94,0-3.8-.28-5.57-.84-1.77-.56-3.18-1.27-4.25-2.15l1.6-3.59c1,.78,2.23,1.43,3.7,1.96,1.47.52,2.97.78,4.52.78,1.3,0,2.36-.14,3.17-.43.81-.28,1.4-.67,1.78-1.16.38-.49.57-1.04.57-1.65,0-.76-.27-1.37-.82-1.83-.55-.46-1.25-.83-2.12-1.1-.87-.27-1.83-.52-2.88-.75-1.05-.23-2.11-.5-3.17-.84-1.06-.33-2.02-.75-2.9-1.26-.88-.51-1.58-1.19-2.12-2.04s-.8-1.94-.8-3.27.36-2.59,1.08-3.72c.72-1.13,1.83-2.03,3.31-2.7s3.36-1.01,5.64-1.01c1.49,0,2.98.19,4.45.57,1.47.38,2.75.92,3.84,1.64l-1.46,3.59c-1.11-.66-2.26-1.16-3.45-1.48-1.19-.32-2.32-.48-3.41-.48-1.26,0-2.29.15-3.09.46-.81.31-1.39.72-1.76,1.23-.37.51-.55,1.07-.55,1.69,0,.76.27,1.37.8,1.83s1.23.82,2.1,1.08c.87.26,1.83.51,2.9.75,1.07.24,2.12.52,3.17.84,1.04.32,2,.73,2.88,1.24.88.51,1.58,1.19,2.12,2.03.53.84.8,1.92.8,3.22s-.36,2.56-1.08,3.68c-.72,1.13-1.83,2.03-3.33,2.7-1.49.68-3.38,1.01-5.65,1.01Z"/>
    <path d="M1570.71,874v-24.89h4.62v24.89h-4.62Z"/>
    <path d="M1593.57,874.35c-1.92,0-3.69-.31-5.3-.94s-3.02-1.52-4.21-2.69c-1.2-1.16-2.13-2.51-2.79-4.05-.66-1.54-1-3.25-1-5.12s.33-3.58,1-5.12c.66-1.54,1.6-2.89,2.81-4.05,1.21-1.16,2.62-2.06,4.23-2.69,1.61-.63,3.38-.94,5.3-.94,2.04,0,3.9.35,5.58,1.05s3.11,1.74,4.27,3.11l-2.99,2.81c-.92-.97-1.94-1.7-3.06-2.19-1.11-.49-2.31-.73-3.59-.73s-2.5.21-3.57.64-2.02,1.03-2.81,1.81c-.79.78-1.42,1.71-1.87,2.77s-.67,2.24-.67,3.52.22,2.45.67,3.52,1.07,1.99,1.87,2.77c.79.78,1.73,1.39,2.81,1.81s2.27.64,3.57.64,2.48-.24,3.59-.73c1.11-.49,2.13-1.23,3.06-2.22l2.99,2.81c-1.16,1.38-2.58,2.42-4.27,3.13-1.68.71-3.56,1.07-5.62,1.07Z"/>
    <path d="M1617.4,874v-24.89h10.24c2.21,0,4.1.35,5.67,1.05,1.58.7,2.79,1.71,3.64,3.04.85,1.33,1.28,2.92,1.28,4.77s-.43,3.4-1.28,4.71c-.85,1.32-2.07,2.34-3.64,3.06-1.58.72-3.47,1.08-5.67,1.08h-7.65l2.03-2.13v9.32h-4.62ZM1622.02,865.18l-2.03-2.28h7.43c2.04,0,3.57-.43,4.61-1.3,1.03-.86,1.55-2.08,1.55-3.65s-.52-2.78-1.55-3.65c-1.03-.87-2.57-1.3-4.61-1.3h-7.43l2.03-2.28v14.44Z"/>
    <path d="M1642.86,874v-24.89h10.21c3.32,0,5.92.79,7.81,2.37,1.88,1.58,2.83,3.74,2.83,6.49,0,1.83-.43,3.39-1.28,4.69-.85,1.3-2.07,2.31-3.64,3.02-1.58.71-3.47,1.07-5.67,1.07h-7.65l2.03-2.06v9.32h-4.62ZM1647.48,865.18l-2.03-2.24h7.43c2.04,0,3.57-.44,4.61-1.32,1.03-.88,1.55-2.1,1.55-3.66s-.52-2.78-1.55-3.65c-1.03-.87-2.57-1.3-4.61-1.3h-7.43l2.03-2.28v14.44ZM1659.15,874l-6.29-9.03h4.94l6.33,9.03h-4.98Z"/>
    <path d="M1680.52,874.35c-1.92,0-3.71-.32-5.35-.96-1.65-.64-3.08-1.54-4.29-2.7-1.21-1.16-2.15-2.52-2.81-4.07-.66-1.55-1-3.24-1-5.07s.33-3.55,1-5.1c.66-1.55,1.6-2.9,2.81-4.05s2.63-2.04,4.27-2.69,3.43-.96,5.37-.96,3.7.31,5.33.94c1.64.63,3.05,1.52,4.25,2.67s2.13,2.51,2.79,4.07c.66,1.56,1,3.27,1,5.12s-.33,3.55-1,5.1c-.66,1.55-1.59,2.91-2.79,4.07-1.2,1.16-2.61,2.06-4.25,2.69-1.64.63-3.41.94-5.33.94ZM1680.52,870.3c1.26,0,2.41-.21,3.47-.64,1.05-.43,1.97-1.03,2.76-1.81.78-.78,1.39-1.71,1.83-2.77s.66-2.24.66-3.52-.21-2.45-.64-3.52-1.04-1.99-1.83-2.77c-.79-.78-1.72-1.39-2.77-1.81-1.06-.43-2.21-.64-3.47-.64s-2.42.21-3.5.64c-1.08.43-2.01,1.04-2.79,1.83-.78.79-1.4,1.72-1.85,2.77-.45,1.06-.67,2.22-.67,3.5s.22,2.42.67,3.49,1.07,2,1.85,2.79c.78.79,1.71,1.4,2.79,1.83,1.08.43,2.25.64,3.5.64Z"/>
    <path d="M1698.8,874v-24.89h10.92c2.66,0,5.01.52,7.06,1.55s3.65,2.48,4.78,4.36c1.14,1.87,1.71,4.05,1.71,6.54s-.57,4.67-1.71,6.54-2.73,3.33-4.78,4.36-4.4,1.55-7.06,1.55h-10.92ZM1703.42,870.08h6.01c1.87,0,3.49-.36,4.85-1.07,1.36-.71,2.43-1.71,3.2-2.99s1.16-2.77,1.16-4.48-.39-3.26-1.16-4.52c-.77-1.26-1.84-2.24-3.2-2.95-1.36-.71-2.98-1.07-4.85-1.07h-6.01v17.07Z"/>
    <path d="M1738.85,874.35c-3.39,0-6.05-.96-7.98-2.88-1.93-1.92-2.9-4.71-2.9-8.36v-14.01h4.62v13.87c0,2.56.55,4.42,1.65,5.58,1.1,1.16,2.66,1.74,4.68,1.74s3.57-.58,4.66-1.74c1.09-1.16,1.64-3.02,1.64-5.58v-13.87h4.55v14.01c0,3.65-.97,6.44-2.9,8.36s-4.61,2.88-8.02,2.88Z"/>
    <path d="M1767.76,874.35c-1.92,0-3.69-.31-5.3-.94s-3.02-1.52-4.21-2.69c-1.2-1.16-2.13-2.51-2.79-4.05-.66-1.54-1-3.25-1-5.12s.33-3.58,1-5.12c.66-1.54,1.6-2.89,2.81-4.05,1.21-1.16,2.62-2.06,4.23-2.69,1.61-.63,3.38-.94,5.3-.94,2.04,0,3.9.35,5.58,1.05s3.11,1.74,4.27,3.11l-2.99,2.81c-.92-.97-1.94-1.7-3.06-2.19-1.11-.49-2.31-.73-3.59-.73s-2.5.21-3.57.64-2.02,1.03-2.81,1.81c-.79.78-1.42,1.71-1.87,2.77s-.67,2.24-.67,3.52.22,2.45.67,3.52,1.07,1.99,1.87,2.77c.79.78,1.73,1.39,2.81,1.81s2.27.64,3.57.64,2.48-.24,3.59-.73c1.11-.49,2.13-1.23,3.06-2.22l2.99,2.81c-1.16,1.38-2.58,2.42-4.27,3.13-1.68.71-3.56,1.07-5.62,1.07Z"/>
    <path d="M1786.25,874v-20.98h-8.25v-3.91h21.12v3.91h-8.25v20.98h-4.62Z"/>
    <path d="M1802.61,874v-24.89h4.62v24.89h-4.62Z"/>
    <path d="M1825.62,874.35c-1.92,0-3.71-.32-5.35-.96-1.65-.64-3.08-1.54-4.29-2.7-1.21-1.16-2.15-2.52-2.81-4.07-.66-1.55-1-3.24-1-5.07s.33-3.55,1-5.1c.66-1.55,1.6-2.9,2.81-4.05s2.63-2.04,4.27-2.69,3.43-.96,5.37-.96,3.7.31,5.33.94c1.64.63,3.05,1.52,4.25,2.67s2.13,2.51,2.79,4.07c.66,1.56,1,3.27,1,5.12s-.33,3.55-1,5.1c-.66,1.55-1.59,2.91-2.79,4.07-1.2,1.16-2.61,2.06-4.25,2.69-1.64.63-3.41.94-5.33.94ZM1825.62,870.3c1.26,0,2.41-.21,3.47-.64,1.05-.43,1.97-1.03,2.76-1.81.78-.78,1.39-1.71,1.83-2.77s.66-2.24.66-3.52-.21-2.45-.64-3.52-1.04-1.99-1.83-2.77c-.79-.78-1.72-1.39-2.77-1.81-1.06-.43-2.21-.64-3.47-.64s-2.42.21-3.5.64c-1.08.43-2.01,1.04-2.79,1.83-.78.79-1.4,1.72-1.85,2.77-.45,1.06-.67,2.22-.67,3.5s.22,2.42.67,3.49,1.07,2,1.85,2.79c.78.79,1.71,1.4,2.79,1.83,1.08.43,2.25.64,3.5.64Z"/>
    <path d="M1843.9,874v-24.89h3.81l15.61,19.2h-1.88v-19.2h4.55v24.89h-3.81l-15.58-19.2h1.88v19.2h-4.59Z"/>
  </g>
  <g>
    <path d="M431.73,390.44v-73.66h4.52l34.2,59.04h-2.42l34.1-59.04h4.42l.11,73.66h-5.26l-.11-65.56h1.47l-32.31,55.77h-2.63l-32.41-55.77h1.58v65.56h-5.26Z"/>
    <path d="M561.17,390.97c-9.12,0-16.31-2.67-21.57-8-5.26-5.33-7.89-13.26-7.89-23.78v-42.41h5.37v42.2c0,9.19,2.1,16,6.31,20.42,4.21,4.42,10.17,6.63,17.89,6.63s13.58-2.21,17.78-6.63c4.21-4.42,6.31-11.22,6.31-20.42v-42.2h5.37v42.41c0,10.52-2.63,18.45-7.89,23.78-5.26,5.33-12.49,8-21.68,8Z"/>
    <path d="M615.78,390.44v-73.66h5.37v68.82h42.41v4.84h-47.78Z"/>
    <path d="M683.24,390.44v-68.82h-26.52v-4.84h58.41v4.84h-26.52v68.82h-5.37Z"/>
    <path d="M728.38,390.44v-73.66h5.37v73.66h-5.37Z"/>
    <path d="M759.43,390.44v-73.66h29.15c7.79,0,14.63,1.58,20.52,4.74,5.89,3.16,10.47,7.51,13.73,13.05,3.26,5.54,4.89,11.89,4.89,19.05s-1.63,13.51-4.89,19.05c-3.26,5.54-7.84,9.89-13.73,13.05-5.89,3.16-12.73,4.74-20.52,4.74h-29.15ZM764.79,385.6h23.36c6.95,0,12.98-1.37,18.1-4.1,5.12-2.74,9.08-6.51,11.89-11.31,2.8-4.8,4.21-10.33,4.21-16.57s-1.4-11.77-4.21-16.57c-2.81-4.8-6.77-8.58-11.89-11.31-5.12-2.74-11.16-4.1-18.1-4.1h-23.36v63.98Z"/>
    <path d="M846.35,390.44v-73.66h5.37v73.66h-5.37Z"/>
    <path d="M896.76,390.97c-5.47,0-10.65-.93-15.52-2.79-4.88-1.86-8.65-4.26-11.31-7.21l2.42-4c2.53,2.6,5.98,4.79,10.37,6.58,4.38,1.79,9.03,2.68,13.94,2.68s8.93-.65,12.05-1.95c3.12-1.3,5.44-3.03,6.95-5.21,1.51-2.17,2.26-4.59,2.26-7.26,0-3.16-.84-5.68-2.53-7.58-1.68-1.89-3.89-3.4-6.63-4.53-2.74-1.12-5.72-2.07-8.94-2.84-3.23-.77-6.49-1.59-9.79-2.47-3.3-.88-6.31-2.02-9.05-3.42-2.74-1.4-4.93-3.31-6.58-5.74-1.65-2.42-2.47-5.56-2.47-9.42,0-3.51.91-6.73,2.74-9.68,1.82-2.95,4.67-5.33,8.52-7.16,3.86-1.82,8.8-2.74,14.84-2.74,4.07,0,8.08.6,12.05,1.79,3.96,1.19,7.35,2.81,10.16,4.84l-2,4.31c-3.09-2.1-6.4-3.67-9.95-4.68-3.54-1.02-6.96-1.53-10.26-1.53-4.7,0-8.59.67-11.68,2-3.09,1.33-5.37,3.1-6.84,5.31s-2.21,4.68-2.21,7.42c0,3.16.82,5.68,2.47,7.58,1.65,1.89,3.84,3.4,6.58,4.53,2.74,1.12,5.75,2.07,9.05,2.84,3.3.77,6.56,1.6,9.79,2.47,3.23.88,6.21,2.02,8.95,3.42,2.74,1.4,4.95,3.3,6.63,5.68,1.68,2.39,2.53,5.47,2.53,9.26,0,3.44-.95,6.65-2.84,9.63-1.89,2.98-4.79,5.37-8.68,7.16s-8.89,2.68-15,2.68Z"/>
    <path d="M972.63,390.97c-5.47,0-10.54-.93-15.21-2.79-4.67-1.86-8.72-4.47-12.15-7.84-3.44-3.37-6.1-7.31-8-11.84-1.89-4.52-2.84-9.49-2.84-14.89s.95-10.37,2.84-14.89c1.89-4.52,4.58-8.47,8.05-11.84s7.52-5.98,12.15-7.84c4.63-1.86,9.68-2.79,15.15-2.79,5.19,0,10.05.84,14.57,2.53,4.53,1.68,8.4,4.25,11.63,7.68l-3.37,3.47c-3.16-3.09-6.65-5.31-10.47-6.68-3.82-1.37-7.88-2.05-12.15-2.05-4.7,0-9.07.81-13.1,2.42-4.04,1.61-7.54,3.89-10.52,6.84-2.98,2.95-5.3,6.38-6.95,10.31-1.65,3.93-2.47,8.21-2.47,12.84s.82,8.91,2.47,12.84c1.65,3.93,3.96,7.37,6.95,10.31,2.98,2.95,6.49,5.23,10.52,6.84,4.03,1.61,8.4,2.42,13.1,2.42,4.28,0,8.33-.68,12.15-2.05,3.82-1.37,7.31-3.63,10.47-6.79l3.37,3.47c-3.23,3.44-7.1,6.02-11.63,7.73-4.52,1.72-9.38,2.58-14.57,2.58Z"/>
    <path d="M1015.77,390.44v-73.66h5.37v73.66h-5.37Z"/>
    <path d="M1046.82,390.44v-73.66h26.41c6.17,0,11.47.98,15.89,2.95,4.42,1.96,7.82,4.79,10.21,8.47,2.38,3.68,3.58,8.16,3.58,13.42s-1.19,9.54-3.58,13.26c-2.39,3.72-5.79,6.56-10.21,8.52-4.42,1.97-9.72,2.95-15.89,2.95h-23.47l2.42-2.53v26.62h-5.37ZM1052.18,364.13l-2.42-2.63h23.47c7.93,0,13.94-1.74,18.05-5.21,4.1-3.47,6.16-8.37,6.16-14.68s-2.05-11.31-6.16-14.79c-4.1-3.47-10.12-5.21-18.05-5.21h-23.47l2.42-2.63v45.15Z"/>
    <path d="M1121.01,390.44v-73.66h5.37v68.82h42.41v4.84h-47.78Z"/>
    <path d="M1182.57,390.44v-73.66h5.37v73.66h-5.37Z"/>
    <path d="M1213.61,390.44v-73.66h4.52l52.51,67.03h-2.42v-67.03h5.37v73.66h-4.42l-52.62-67.03h2.42v67.03h-5.37Z"/>
    <path d="M1286.96,390.44l33.88-73.66h5.37l33.89,73.66h-5.79l-31.99-70.3h2.32l-31.89,70.3h-5.79ZM1299.38,369.71l1.79-4.53h44.09l1.79,4.53h-47.67Z"/>
    <path d="M1373.46,390.44v-73.66h26.41c9.26,0,16.52,2.18,21.78,6.52,5.26,4.35,7.89,10.45,7.89,18.31,0,5.12-1.19,9.52-3.58,13.21-2.39,3.68-5.79,6.52-10.21,8.52s-9.72,3-15.89,3h-23.47l2.42-2.53v26.62h-5.37ZM1378.83,364.13l-2.42-2.53h23.47c7.93,0,13.94-1.75,18.05-5.26,4.1-3.51,6.16-8.42,6.16-14.73s-2.05-11.31-6.16-14.79c-4.1-3.47-10.12-5.21-18.05-5.21h-23.47l2.42-2.63v45.15ZM1424.61,390.44l-19.15-26.73h6.1l19.15,26.73h-6.1Z"/>
    <path d="M1465.54,390.44v-26.73l1.26,3.47-30.94-50.41h5.89l28.1,45.78h-2.95l28.1-45.78h5.58l-30.94,50.41,1.26-3.47v26.73h-5.37Z"/>
  </g>
</svg>