<?xml version="1.0" encoding="UTF-8"?>
<svg id="katman_1" data-name="katman 1" xmlns="http://www.w3.org/2000/svg" width="3840" height="2160" viewBox="0 0 1920 1080">
  <defs>
    <style>
      .cls-1 {
        fill: #fff;
      }

      .cls-2 {
        fill: #92191c;
      }
    </style>
  </defs>
  <g>
    <path class="cls-2" d="M315.98,452.25c0-84.22,53.97-125.47,119.97-125.47,55,0,100.72,27.16,116.19,83.19l-85.59,20.28c-5.16-20.62-16.84-27.84-30.25-27.84-17.88,0-32.66,16.5-32.66,49.84s16.16,49.84,36.44,49.84,29.22-11.69,30.59-38.84h84.22c.34,2.75.34,5.5.34,7.91,0,33-11,59.81-31.97,78.72-20.97,18.91-50.19,27.84-82.84,27.84-68.41,0-124.44-41.25-124.44-125.47Z"/>
    <path class="cls-2" d="M625.36,326.78c30.94,0,56.38,19.94,56.38,61.19s-25.44,61.19-56.38,61.19-56.38-19.94-56.38-61.19,25.09-61.19,56.38-61.19ZM571.73,455.34h48.47l24.75,44.34v-44.34h40.22v117.22h-37.47l-35.75-62.22v62.22h-40.22v-117.22ZM625.36,412.37c7.91,0,13.75-7.91,13.75-24.41s-5.84-24.06-13.75-24.06-13.75,7.91-13.75,24.06,5.84,24.41,13.75,24.41Z"/>
    <path class="cls-2" d="M698.92,331.93h99.69l50.53,91.44v-91.44h82.5v240.63h-76.66l-73.56-127.53v127.53h-82.5v-240.63Z"/>
    <path class="cls-2" d="M945.39,331.93h172.22v77.34h-89.72v34.03h79.41v31.28l-79.41-8.59v29.22h89.72v77.34h-172.22v-240.63Z"/>
    <path class="cls-2" d="M1131.36,452.25c0-84.22,53.97-125.47,119.97-125.47,55,0,100.72,27.16,116.19,83.19l-85.59,20.28c-5.16-20.62-16.84-27.84-30.25-27.84-17.88,0-32.66,16.5-32.66,49.84s16.16,49.84,36.44,49.84,29.22-11.69,30.59-38.84h84.22c.34,2.75.34,5.5.34,7.91,0,33-11,59.81-31.97,78.72-20.97,18.91-50.19,27.84-82.84,27.84-68.41,0-124.44-41.25-124.44-125.47Z"/>
    <path class="cls-2" d="M1453.11,409.28h-68.75v-77.34h219.66v77.34h-68.41v163.28h-82.5v-163.28Z"/>
  </g>
  <g>
    <path class="cls-1" d="M617.04,801.14v-28.61h19.13v1.88h-17.05v24.85h17.66v1.88h-19.74ZM618.88,787.53v-1.84h15.49v1.84h-15.49Z"/>
    <path class="cls-1" d="M643.74,801.14v-21.34h1.96v5.89l-.29-.65c.63-1.66,1.68-2.98,3.15-3.94,1.47-.97,3.24-1.45,5.31-1.45s3.92.54,5.38,1.61c1.46,1.08,2.38,2.68,2.76,4.8l-.69-.29c.57-1.83,1.65-3.3,3.23-4.44,1.58-1.13,3.5-1.7,5.76-1.7,1.72,0,3.21.33,4.48,1,1.27.67,2.25,1.68,2.96,3.02.71,1.35,1.06,3.02,1.06,5.01v12.47h-2.04v-12.3c0-2.4-.59-4.22-1.76-5.48-1.17-1.25-2.81-1.88-4.91-1.88-1.61,0-3,.34-4.17,1.02-1.17.68-2.07,1.64-2.7,2.86s-.94,2.7-.94,4.41v11.36h-2.04v-12.3c0-2.4-.59-4.22-1.76-5.48-1.17-1.25-2.81-1.88-4.91-1.88-1.61,0-3,.34-4.17,1.02-1.17.68-2.07,1.64-2.7,2.86s-.94,2.7-.94,4.41v11.36h-2.04Z"/>
    <path class="cls-1" d="M692.99,801.3c-1.58,0-2.95-.25-4.11-.76-1.16-.5-2.04-1.22-2.66-2.15-.61-.93-.92-1.99-.92-3.19,0-1.09.25-2.08.76-2.96.5-.89,1.34-1.61,2.51-2.17,1.17-.56,2.74-.84,4.7-.84h7.85v1.59h-7.81c-2.21,0-3.75.41-4.64,1.23-.89.82-1.33,1.84-1.33,3.07,0,1.36.52,2.45,1.55,3.27,1.04.82,2.49,1.23,4.37,1.23s3.32-.41,4.56-1.23c1.24-.82,2.16-2,2.76-3.56l.57,1.39c-.57,1.55-1.55,2.79-2.92,3.7-1.38.91-3.13,1.37-5.25,1.37ZM700.68,801.14v-4.86l-.08-.74v-8.01c0-1.99-.54-3.5-1.61-4.54-1.08-1.04-2.65-1.55-4.72-1.55-1.47,0-2.84.25-4.11.76-1.27.5-2.35,1.15-3.25,1.94l-1.02-1.47c1.06-.95,2.34-1.7,3.84-2.23,1.5-.53,3.07-.8,4.7-.8,2.64,0,4.67.67,6.09,2,1.42,1.34,2.13,3.33,2.13,5.97v13.53h-1.96Z"/>
    <path class="cls-1" d="M712.08,774.61c-.46,0-.86-.16-1.19-.49-.33-.33-.49-.71-.49-1.14,0-.46.16-.86.49-1.19.33-.33.72-.49,1.19-.49.49,0,.89.16,1.21.47.31.31.47.7.47,1.17s-.16.86-.47,1.19c-.31.33-.72.49-1.21.49ZM711.06,801.14v-21.34h2.04v21.34h-2.04Z"/>
    <path class="cls-1" d="M721.73,801.14v-30.33h2.04v30.33h-2.04Z"/>
    <path class="cls-1" d="M732.15,783.11c-.46,0-.87-.17-1.21-.51-.34-.34-.51-.76-.51-1.25s.17-.9.51-1.23c.34-.33.74-.49,1.21-.49s.87.16,1.21.49c.34.33.51.74.51,1.23s-.17.91-.51,1.25c-.34.34-.74.51-1.21.51ZM732.15,801.3c-.46,0-.87-.17-1.21-.51-.34-.34-.51-.76-.51-1.25s.17-.9.51-1.23c.34-.33.74-.49,1.21-.49s.87.16,1.21.49c.34.33.51.74.51,1.23s-.17.91-.51,1.25c-.34.34-.74.51-1.21.51Z"/>
    <path class="cls-1" d="M752.1,774.61c-.46,0-.86-.16-1.19-.49-.33-.33-.49-.71-.49-1.14,0-.46.16-.86.49-1.19.33-.33.72-.49,1.19-.49.49,0,.89.16,1.21.47.31.31.47.7.47,1.17s-.16.86-.47,1.19c-.31.33-.72.49-1.21.49ZM751.08,801.14v-21.34h2.04v21.34h-2.04Z"/>
    <path class="cls-1" d="M761.75,801.14v-21.34h1.96v5.93l-.29-.65c.65-1.69,1.73-3.02,3.23-3.99,1.5-.97,3.34-1.45,5.52-1.45,1.74,0,3.26.33,4.56,1,1.29.67,2.3,1.68,3.02,3.02.72,1.35,1.08,3.02,1.08,5.01v12.47h-2.04v-12.3c0-2.4-.61-4.22-1.82-5.48-1.21-1.25-2.91-1.88-5.09-1.88-1.66,0-3.11.34-4.33,1.02-1.23.68-2.16,1.64-2.8,2.86-.64,1.23-.96,2.7-.96,4.41v11.36h-2.04Z"/>
    <path class="cls-1" d="M785.74,781.56v-1.76h12.75v1.76h-12.75ZM789.67,801.14v-24.61c0-1.77.51-3.19,1.53-4.27,1.02-1.08,2.49-1.61,4.39-1.61.79,0,1.57.12,2.33.35.76.23,1.39.58,1.88,1.04l-.82,1.55c-.41-.41-.9-.71-1.47-.9-.57-.19-1.19-.29-1.84-.29-1.31,0-2.3.36-2.98,1.08-.68.72-1.02,1.79-1.02,3.21v3.6l.04.98v19.87h-2.04Z"/>
    <path class="cls-1" d="M810.64,801.3c-2.04,0-3.86-.46-5.46-1.39-1.59-.93-2.86-2.21-3.8-3.84-.94-1.64-1.41-3.5-1.41-5.6s.47-4,1.41-5.62c.94-1.62,2.21-2.9,3.8-3.82,1.59-.93,3.41-1.39,5.46-1.39s3.87.46,5.48,1.39c1.61.93,2.87,2.2,3.8,3.82.93,1.62,1.39,3.5,1.39,5.62s-.46,3.97-1.39,5.6c-.93,1.63-2.19,2.92-3.8,3.84-1.61.93-3.43,1.39-5.48,1.39ZM810.64,799.46c1.63,0,3.11-.37,4.41-1.12,1.31-.75,2.33-1.8,3.07-3.17.74-1.36,1.1-2.93,1.1-4.7s-.37-3.37-1.1-4.72c-.74-1.35-1.76-2.4-3.07-3.15-1.31-.75-2.78-1.12-4.41-1.12s-3.1.37-4.39,1.12c-1.29.75-2.32,1.8-3.07,3.15-.75,1.35-1.12,2.92-1.12,4.72s.37,3.34,1.12,4.7c.75,1.36,1.77,2.42,3.07,3.17,1.29.75,2.76,1.12,4.39,1.12Z"/>
    <path class="cls-1" d="M844.32,809.27c-2.75,0-5.28-.46-7.58-1.37-2.3-.91-4.29-2.19-5.97-3.84-1.68-1.65-2.96-3.6-3.86-5.85-.9-2.25-1.35-4.73-1.35-7.46s.46-5.22,1.37-7.48c.91-2.26,2.21-4.21,3.9-5.85,1.69-1.63,3.69-2.9,6.01-3.78,2.32-.89,4.86-1.33,7.64-1.33s5.27.44,7.56,1.31c2.29.87,4.28,2.11,5.97,3.7,1.69,1.59,2.99,3.5,3.9,5.72.91,2.22,1.37,4.67,1.37,7.34,0,2.32-.26,4.29-.78,5.91-.52,1.62-1.25,2.86-2.21,3.72-.95.86-2.06,1.29-3.31,1.29s-2.32-.38-3.11-1.14c-.79-.76-1.19-1.84-1.19-3.23v-3.6l.37-2.74-.41-3.56v-6.79h1.88v16.15c0,1.17.26,2,.78,2.49.52.49,1.16.74,1.92.74.9,0,1.68-.36,2.35-1.08.67-.72,1.19-1.76,1.55-3.13.37-1.36.55-3.02.55-4.99,0-2.48-.42-4.73-1.25-6.77-.83-2.03-2.02-3.78-3.56-5.25-1.54-1.47-3.36-2.6-5.46-3.37-2.1-.78-4.41-1.17-6.95-1.17s-4.86.41-6.99,1.23c-2.13.82-3.95,1.98-5.48,3.47-1.53,1.5-2.7,3.28-3.54,5.33-.83,2.06-1.25,4.34-1.25,6.85s.41,4.76,1.23,6.83c.82,2.07,1.98,3.86,3.49,5.38,1.51,1.51,3.32,2.68,5.42,3.49,2.1.82,4.41,1.23,6.95,1.23,1.23,0,2.54-.14,3.95-.43,1.4-.29,2.69-.74,3.86-1.37l.53,1.51c-1.2.63-2.56,1.1-4.09,1.41-1.53.31-2.94.47-4.25.47ZM843.99,801.3c-1.94,0-3.67-.46-5.21-1.37-1.54-.91-2.75-2.17-3.64-3.78-.89-1.61-1.33-3.43-1.33-5.48s.44-3.9,1.33-5.48c.89-1.58,2.1-2.83,3.64-3.74,1.54-.91,3.28-1.37,5.21-1.37s3.6.44,5.09,1.31c1.49.87,2.66,2.1,3.52,3.68.86,1.58,1.29,3.45,1.29,5.6s-.43,3.99-1.29,5.6c-.86,1.61-2.02,2.85-3.49,3.72-1.47.87-3.18,1.31-5.11,1.31ZM844.2,799.59c1.63,0,3.09-.37,4.37-1.12,1.28-.75,2.29-1.79,3.02-3.13.74-1.33,1.1-2.89,1.1-4.66s-.37-3.36-1.1-4.68c-.74-1.32-1.74-2.35-3.02-3.09-1.28-.74-2.74-1.1-4.37-1.1s-3.05.37-4.33,1.1c-1.28.74-2.29,1.77-3.02,3.11-.74,1.34-1.1,2.89-1.1,4.66s.37,3.29,1.1,4.64c.74,1.35,1.74,2.4,3.02,3.15,1.28.75,2.72,1.12,4.33,1.12Z"/>
    <path class="cls-1" d="M875.63,801.3c-1.58,0-2.95-.25-4.11-.76-1.16-.5-2.04-1.22-2.66-2.15-.61-.93-.92-1.99-.92-3.19,0-1.09.25-2.08.76-2.96.5-.89,1.34-1.61,2.51-2.17,1.17-.56,2.74-.84,4.7-.84h7.85v1.59h-7.81c-2.21,0-3.75.41-4.64,1.23-.89.82-1.33,1.84-1.33,3.07,0,1.36.52,2.45,1.55,3.27,1.04.82,2.49,1.23,4.37,1.23s3.32-.41,4.56-1.23c1.24-.82,2.16-2,2.76-3.56l.57,1.39c-.57,1.55-1.55,2.79-2.92,3.7-1.38.91-3.13,1.37-5.25,1.37ZM883.31,801.14v-4.86l-.08-.74v-8.01c0-1.99-.54-3.5-1.61-4.54-1.08-1.04-2.65-1.55-4.72-1.55-1.47,0-2.84.25-4.11.76-1.27.5-2.35,1.15-3.25,1.94l-1.02-1.47c1.06-.95,2.34-1.7,3.84-2.23,1.5-.53,3.07-.8,4.7-.8,2.64,0,4.67.67,6.09,2,1.42,1.34,2.13,3.33,2.13,5.97v13.53h-1.96Z"/>
    <path class="cls-1" d="M893.7,801.14v-30.33h2.04v30.33h-2.04Z"/>
    <path class="cls-1" d="M904.37,809.07v-29.27h1.96v6.99l-.33,3.72.41,3.72v14.84h-2.04ZM915.08,801.3c-1.88,0-3.58-.44-5.09-1.31-1.51-.87-2.71-2.12-3.6-3.74-.89-1.62-1.33-3.55-1.33-5.78s.44-4.16,1.33-5.78c.89-1.62,2.08-2.87,3.6-3.74,1.51-.87,3.21-1.31,5.09-1.31,2.02,0,3.82.46,5.42,1.37,1.59.91,2.85,2.19,3.76,3.82.91,1.63,1.37,3.52,1.37,5.64s-.46,4.01-1.37,5.64c-.91,1.63-2.17,2.91-3.76,3.82-1.59.91-3.4,1.37-5.42,1.37ZM914.95,799.46c1.63,0,3.11-.37,4.41-1.12,1.31-.75,2.34-1.8,3.09-3.17.75-1.36,1.12-2.93,1.12-4.7s-.37-3.37-1.12-4.72c-.75-1.35-1.78-2.4-3.09-3.15-1.31-.75-2.78-1.12-4.41-1.12s-3.1.37-4.39,1.12c-1.29.75-2.32,1.8-3.07,3.15-.75,1.35-1.12,2.92-1.12,4.72s.37,3.34,1.12,4.7c.75,1.36,1.77,2.42,3.07,3.17,1.29.75,2.76,1.12,4.39,1.12Z"/>
    <path class="cls-1" d="M940.26,800.36c-2.02,0-3.82-.44-5.42-1.33-1.59-.89-2.86-2.11-3.8-3.68-.94-1.57-1.41-3.36-1.41-5.38s.47-3.84,1.41-5.4c.94-1.55,2.21-2.77,3.8-3.64,1.59-.87,3.4-1.31,5.42-1.31s3.67.42,5.21,1.25c1.54.83,2.76,2.02,3.66,3.56.9,1.54,1.35,3.39,1.35,5.54s-.45,3.97-1.35,5.52c-.9,1.55-2.12,2.75-3.66,3.6-1.54.85-3.28,1.27-5.21,1.27ZM940.83,809.23c-1.94,0-3.77-.3-5.52-.9-1.74-.6-3.16-1.43-4.25-2.49l1.1-1.55c1.06.98,2.34,1.74,3.82,2.29,1.49.54,3.09.82,4.8.82,2.86,0,4.97-.67,6.32-2,1.35-1.34,2.02-3.43,2.02-6.3v-5.93l.41-3.19-.33-3.19v-6.99h1.96v19.05c0,3.57-.87,6.19-2.6,7.87-1.73,1.68-4.31,2.51-7.75,2.51ZM940.42,798.52c1.72,0,3.23-.36,4.54-1.08,1.31-.72,2.34-1.73,3.09-3.02.75-1.29,1.12-2.77,1.12-4.44s-.37-3.17-1.12-4.46c-.75-1.28-1.78-2.28-3.09-2.98-1.31-.71-2.82-1.06-4.54-1.06s-3.15.35-4.48,1.06c-1.32.71-2.36,1.7-3.11,2.98-.75,1.28-1.12,2.77-1.12,4.46s.37,3.14,1.12,4.44c.75,1.29,1.78,2.3,3.11,3.02,1.32.72,2.81,1.08,4.48,1.08Z"/>
    <path class="cls-1" d="M959.84,801.14v-21.34h1.96v5.85l-.2-.65c.6-1.72,1.61-3.04,3.02-3.97,1.42-.93,3.19-1.39,5.31-1.39v2c-.08,0-.16,0-.25-.02-.08-.01-.16-.02-.24-.02-2.37,0-4.22.74-5.56,2.23-1.34,1.49-2,3.55-2,6.19v11.12h-2.04Z"/>
    <path class="cls-1" d="M980.15,801.3c-1.58,0-2.95-.25-4.11-.76-1.16-.5-2.04-1.22-2.66-2.15-.61-.93-.92-1.99-.92-3.19,0-1.09.25-2.08.76-2.96.5-.89,1.34-1.61,2.51-2.17,1.17-.56,2.74-.84,4.7-.84h7.85v1.59h-7.81c-2.21,0-3.75.41-4.64,1.23-.89.82-1.33,1.84-1.33,3.07,0,1.36.52,2.45,1.55,3.27,1.04.82,2.49,1.23,4.37,1.23s3.32-.41,4.56-1.23c1.24-.82,2.16-2,2.76-3.56l.57,1.39c-.57,1.55-1.55,2.79-2.92,3.7-1.38.91-3.13,1.37-5.25,1.37ZM987.84,801.14v-4.86l-.08-.74v-8.01c0-1.99-.54-3.5-1.61-4.54-1.08-1.04-2.65-1.55-4.72-1.55-1.47,0-2.84.25-4.11.76-1.27.5-2.35,1.15-3.25,1.94l-1.02-1.47c1.06-.95,2.34-1.7,3.84-2.23,1.5-.53,3.07-.8,4.7-.8,2.64,0,4.67.67,6.09,2,1.42,1.34,2.13,3.33,2.13,5.97v13.53h-1.96Z"/>
    <path class="cls-1" d="M998.22,809.07v-29.27h1.96v6.99l-.33,3.72.41,3.72v14.84h-2.04ZM1008.93,801.3c-1.88,0-3.58-.44-5.09-1.31-1.51-.87-2.71-2.12-3.6-3.74-.89-1.62-1.33-3.55-1.33-5.78s.44-4.16,1.33-5.78c.89-1.62,2.08-2.87,3.6-3.74,1.51-.87,3.21-1.31,5.09-1.31,2.02,0,3.82.46,5.42,1.37,1.59.91,2.85,2.19,3.76,3.82.91,1.63,1.37,3.52,1.37,5.64s-.46,4.01-1.37,5.64c-.91,1.63-2.17,2.91-3.76,3.82-1.59.91-3.4,1.37-5.42,1.37ZM1008.81,799.46c1.63,0,3.11-.37,4.41-1.12,1.31-.75,2.34-1.8,3.09-3.17.75-1.36,1.12-2.93,1.12-4.7s-.37-3.37-1.12-4.72c-.75-1.35-1.78-2.4-3.09-3.15-1.31-.75-2.78-1.12-4.41-1.12s-3.1.37-4.39,1.12c-1.29.75-2.32,1.8-3.07,3.15-.75,1.35-1.12,2.92-1.12,4.72s.37,3.34,1.12,4.7c.75,1.36,1.77,2.42,3.07,3.17,1.29.75,2.76,1.12,4.39,1.12Z"/>
    <path class="cls-1" d="M1025.81,801.14v-30.33h2.04v14.92l-.37-.65c.65-1.69,1.73-3.02,3.23-3.99,1.5-.97,3.34-1.45,5.52-1.45,1.74,0,3.26.33,4.56,1,1.29.67,2.3,1.68,3.02,3.02.72,1.35,1.08,3.02,1.08,5.01v12.47h-2.04v-12.3c0-2.4-.61-4.22-1.82-5.48-1.21-1.25-2.91-1.88-5.09-1.88-1.66,0-3.11.34-4.33,1.02-1.23.68-2.16,1.64-2.8,2.86-.64,1.23-.96,2.7-.96,4.41v11.36h-2.04Z"/>
    <path class="cls-1" d="M1054.34,774.61c-.46,0-.86-.16-1.19-.49-.33-.33-.49-.71-.49-1.14,0-.46.16-.86.49-1.19.33-.33.72-.49,1.19-.49.49,0,.89.16,1.21.47.31.31.47.7.47,1.17s-.16.86-.47,1.19c-.31.33-.72.49-1.21.49ZM1053.32,801.14v-21.34h2.04v21.34h-2.04Z"/>
    <path class="cls-1" d="M1072.45,801.3c-2.07,0-3.92-.46-5.54-1.39-1.62-.93-2.9-2.21-3.84-3.84-.94-1.64-1.41-3.5-1.41-5.6s.47-4.01,1.41-5.64c.94-1.64,2.22-2.91,3.84-3.82,1.62-.91,3.47-1.37,5.54-1.37,1.72,0,3.28.33,4.68.98,1.4.65,2.54,1.63,3.41,2.94l-1.51,1.1c-.76-1.09-1.72-1.89-2.86-2.41-1.14-.52-2.38-.78-3.72-.78-1.66,0-3.15.37-4.48,1.12-1.32.75-2.36,1.8-3.11,3.15-.75,1.35-1.12,2.92-1.12,4.72s.37,3.37,1.12,4.72c.75,1.35,1.78,2.4,3.11,3.15,1.32.75,2.81,1.12,4.48,1.12,1.34,0,2.58-.26,3.72-.78,1.14-.52,2.1-1.32,2.86-2.41l1.51,1.1c-.87,1.31-2.01,2.29-3.41,2.94s-2.96.98-4.68.98Z"/>
    <path class="cls-1" d="M1092.07,801.3c-1.77,0-3.43-.26-4.97-.78-1.54-.52-2.73-1.17-3.58-1.96l.94-1.63c.82.71,1.91,1.32,3.27,1.82,1.36.5,2.83.76,4.41.76,2.23,0,3.84-.37,4.82-1.1.98-.74,1.47-1.7,1.47-2.9,0-.87-.25-1.56-.76-2.06-.5-.5-1.18-.89-2.02-1.17-.85-.27-1.77-.5-2.78-.67-1.01-.18-2.02-.37-3.02-.59-1.01-.22-1.94-.53-2.78-.94-.85-.41-1.52-.97-2.02-1.7-.5-.72-.76-1.68-.76-2.88,0-1.09.3-2.07.9-2.94.6-.87,1.5-1.57,2.7-2.11,1.2-.53,2.7-.8,4.5-.8,1.34,0,2.68.19,4.03.57,1.35.38,2.45.89,3.29,1.51l-.94,1.64c-.9-.68-1.91-1.17-3.02-1.47-1.12-.3-2.25-.45-3.39-.45-2.07,0-3.59.38-4.56,1.14-.97.76-1.45,1.72-1.45,2.86,0,.9.25,1.61.76,2.15.5.53,1.18.94,2.02,1.23.84.29,1.77.52,2.78.7,1.01.18,2.02.37,3.02.59,1.01.22,1.93.53,2.78.92.84.4,1.52.94,2.02,1.63.5.7.76,1.63.76,2.8s-.32,2.19-.96,3.07c-.64.87-1.59,1.55-2.84,2.04-1.25.49-2.79.74-4.62.74Z"/>
    <path class="cls-1" d="M1102.7,781.56v-1.76h12.75v1.76h-12.75ZM1112.43,801.3c-1.88,0-3.32-.52-4.31-1.55-.99-1.04-1.49-2.45-1.49-4.25v-20.36h2.04v20.15c0,1.36.34,2.41,1.02,3.15.68.74,1.66,1.1,2.94,1.1s2.44-.39,3.31-1.19l.86,1.43c-.55.52-1.21.9-1.98,1.14-.78.25-1.57.37-2.39.37Z"/>
    <path class="cls-1" d="M1131.15,801.3c-1.83,0-3.41-.33-4.74-1-1.34-.67-2.36-1.68-3.09-3.02-.72-1.35-1.08-3.02-1.08-5.01v-12.47h2.04v12.3c0,2.4.61,4.22,1.84,5.48,1.23,1.25,2.96,1.88,5.19,1.88,1.61,0,3-.34,4.17-1.02,1.17-.68,2.07-1.64,2.7-2.88.63-1.24.94-2.7.94-4.39v-11.36h2.04v21.34h-1.96v-5.93l.29.69c-.63,1.66-1.67,2.98-3.13,3.94-1.46.97-3.2,1.45-5.21,1.45Z"/>
    <path class="cls-1" d="M1158.05,801.3c-1.99,0-3.78-.46-5.38-1.37-1.59-.91-2.85-2.19-3.78-3.82-.93-1.64-1.39-3.52-1.39-5.64s.46-4.04,1.39-5.66c.93-1.62,2.19-2.89,3.78-3.8,1.59-.91,3.39-1.37,5.38-1.37,1.88,0,3.58.44,5.09,1.31,1.51.87,2.71,2.11,3.6,3.72.89,1.61,1.33,3.54,1.33,5.8s-.44,4.13-1.31,5.76c-.87,1.64-2.06,2.89-3.58,3.76-1.51.87-3.22,1.31-5.13,1.31ZM1158.17,799.46c1.63,0,3.1-.37,4.39-1.12,1.29-.75,2.32-1.8,3.07-3.17.75-1.36,1.12-2.93,1.12-4.7s-.38-3.37-1.12-4.72c-.75-1.35-1.77-2.4-3.07-3.15-1.29-.75-2.76-1.12-4.39-1.12s-3.1.37-4.39,1.12c-1.29.75-2.32,1.8-3.07,3.15-.75,1.35-1.12,2.92-1.12,4.72s.37,3.34,1.12,4.7c.75,1.36,1.77,2.42,3.07,3.17,1.29.75,2.76,1.12,4.39,1.12ZM1166.79,801.14v-6.99l.37-3.72-.41-3.72v-15.9h2.04v30.33h-2Z"/>
    <path class="cls-1" d="M1178.44,774.61c-.46,0-.86-.16-1.19-.49-.33-.33-.49-.71-.49-1.14,0-.46.16-.86.49-1.19.33-.33.72-.49,1.19-.49.49,0,.89.16,1.21.47.31.31.47.7.47,1.17s-.16.86-.47,1.19c-.31.33-.72.49-1.21.49ZM1177.42,801.14v-21.34h2.04v21.34h-2.04Z"/>
    <path class="cls-1" d="M1196.43,801.3c-2.04,0-3.86-.46-5.46-1.39-1.59-.93-2.86-2.21-3.8-3.84-.94-1.64-1.41-3.5-1.41-5.6s.47-4,1.41-5.62c.94-1.62,2.21-2.9,3.8-3.82,1.59-.93,3.41-1.39,5.46-1.39s3.87.46,5.48,1.39c1.61.93,2.87,2.2,3.8,3.82.93,1.62,1.39,3.5,1.39,5.62s-.46,3.97-1.39,5.6c-.93,1.63-2.19,2.92-3.8,3.84-1.61.93-3.43,1.39-5.48,1.39ZM1196.43,799.46c1.63,0,3.11-.37,4.41-1.12,1.31-.75,2.33-1.8,3.07-3.17.74-1.36,1.1-2.93,1.1-4.7s-.37-3.37-1.1-4.72c-.74-1.35-1.76-2.4-3.07-3.15-1.31-.75-2.78-1.12-4.41-1.12s-3.1.37-4.39,1.12c-1.29.75-2.32,1.8-3.07,3.15-.75,1.35-1.12,2.92-1.12,4.72s.37,3.34,1.12,4.7c.75,1.36,1.77,2.42,3.07,3.17,1.29.75,2.76,1.12,4.39,1.12Z"/>
    <path class="cls-1" d="M1212.49,801.3c-.46,0-.87-.17-1.21-.51-.34-.34-.51-.76-.51-1.25s.17-.9.51-1.23c.34-.33.74-.49,1.21-.49s.87.16,1.21.49c.34.33.51.74.51,1.23s-.17.91-.51,1.25c-.34.34-.74.51-1.21.51Z"/>
    <path class="cls-1" d="M1228.68,801.3c-2.07,0-3.92-.46-5.54-1.39-1.62-.93-2.9-2.21-3.84-3.84-.94-1.64-1.41-3.5-1.41-5.6s.47-4.01,1.41-5.64c.94-1.64,2.22-2.91,3.84-3.82,1.62-.91,3.47-1.37,5.54-1.37,1.72,0,3.28.33,4.68.98,1.4.65,2.54,1.63,3.41,2.94l-1.51,1.1c-.76-1.09-1.72-1.89-2.86-2.41-1.14-.52-2.38-.78-3.72-.78-1.66,0-3.15.37-4.48,1.12-1.32.75-2.36,1.8-3.11,3.15-.75,1.35-1.12,2.92-1.12,4.72s.37,3.37,1.12,4.72c.75,1.35,1.78,2.4,3.11,3.15,1.32.75,2.81,1.12,4.48,1.12,1.34,0,2.58-.26,3.72-.78,1.14-.52,2.1-1.32,2.86-2.41l1.51,1.1c-.87,1.31-2.01,2.29-3.41,2.94s-2.96.98-4.68.98Z"/>
    <path class="cls-1" d="M1250.88,801.3c-2.04,0-3.86-.46-5.46-1.39-1.59-.93-2.86-2.21-3.8-3.84-.94-1.64-1.41-3.5-1.41-5.6s.47-4,1.41-5.62c.94-1.62,2.21-2.9,3.8-3.82,1.59-.93,3.41-1.39,5.46-1.39s3.87.46,5.48,1.39c1.61.93,2.87,2.2,3.8,3.82.93,1.62,1.39,3.5,1.39,5.62s-.46,3.97-1.39,5.6c-.93,1.63-2.19,2.92-3.8,3.84-1.61.93-3.43,1.39-5.48,1.39ZM1250.88,799.46c1.63,0,3.11-.37,4.41-1.12,1.31-.75,2.33-1.8,3.07-3.17.74-1.36,1.1-2.93,1.1-4.7s-.37-3.37-1.1-4.72c-.74-1.35-1.76-2.4-3.07-3.15-1.31-.75-2.78-1.12-4.41-1.12s-3.1.37-4.39,1.12c-1.29.75-2.32,1.8-3.07,3.15-.75,1.35-1.12,2.92-1.12,4.72s.37,3.34,1.12,4.7c.75,1.36,1.77,2.42,3.07,3.17,1.29.75,2.76,1.12,4.39,1.12Z"/>
    <path class="cls-1" d="M1267.88,801.14v-21.34h1.96v5.89l-.29-.65c.63-1.66,1.68-2.98,3.15-3.94,1.47-.97,3.24-1.45,5.31-1.45s3.92.54,5.38,1.61c1.46,1.08,2.38,2.68,2.76,4.8l-.69-.29c.57-1.83,1.65-3.3,3.23-4.44,1.58-1.13,3.5-1.7,5.76-1.7,1.72,0,3.21.33,4.48,1,1.27.67,2.25,1.68,2.96,3.02.71,1.35,1.06,3.02,1.06,5.01v12.47h-2.04v-12.3c0-2.4-.59-4.22-1.76-5.48-1.17-1.25-2.81-1.88-4.91-1.88-1.61,0-3,.34-4.17,1.02-1.17.68-2.07,1.64-2.7,2.86s-.94,2.7-.94,4.41v11.36h-2.04v-12.3c0-2.4-.59-4.22-1.76-5.48-1.17-1.25-2.81-1.88-4.91-1.88-1.61,0-3,.34-4.17,1.02-1.17.68-2.07,1.64-2.7,2.86s-.94,2.7-.94,4.41v11.36h-2.04Z"/>
    <path class="cls-1" d="M707.08,865.6v-28.61h10.26c2.4,0,4.46.38,6.17,1.14,1.72.76,3.04,1.86,3.97,3.29.93,1.43,1.39,3.17,1.39,5.21s-.46,3.71-1.39,5.15c-.93,1.44-2.25,2.55-3.97,3.31-1.72.76-3.77,1.14-6.17,1.14h-9.12l.94-.98v10.34h-2.08ZM709.16,855.38l-.94-1.02h9.12c3.08,0,5.42-.67,7.01-2.02s2.39-3.25,2.39-5.7-.8-4.39-2.39-5.74-3.93-2.02-7.01-2.02h-9.12l.94-1.02v17.54Z"/>
    <path class="cls-1" d="M735.65,865.6v-30.33h2.04v14.92l-.37-.65c.65-1.69,1.73-3.02,3.23-3.99,1.5-.97,3.34-1.45,5.52-1.45,1.74,0,3.26.33,4.56,1,1.29.67,2.3,1.68,3.02,3.02.72,1.35,1.08,3.02,1.08,5.01v12.47h-2.04v-12.3c0-2.4-.61-4.22-1.82-5.48-1.21-1.25-2.91-1.88-5.09-1.88-1.66,0-3.11.34-4.33,1.02-1.23.68-2.16,1.64-2.8,2.86-.64,1.23-.96,2.7-.96,4.41v11.36h-2.04Z"/>
    <path class="cls-1" d="M771.5,865.76c-2.04,0-3.86-.46-5.46-1.39-1.59-.93-2.86-2.21-3.8-3.84-.94-1.63-1.41-3.5-1.41-5.6s.47-4,1.41-5.62c.94-1.62,2.21-2.9,3.8-3.82,1.59-.93,3.41-1.39,5.46-1.39s3.87.46,5.48,1.39c1.61.93,2.87,2.2,3.8,3.82.93,1.62,1.39,3.5,1.39,5.62s-.46,3.97-1.39,5.6c-.93,1.64-2.19,2.92-3.8,3.84-1.61.93-3.43,1.39-5.48,1.39ZM771.5,863.92c1.63,0,3.11-.37,4.41-1.12,1.31-.75,2.33-1.81,3.07-3.17s1.1-2.93,1.1-4.7-.37-3.37-1.1-4.72c-.74-1.35-1.76-2.4-3.07-3.15-1.31-.75-2.78-1.12-4.41-1.12s-3.1.37-4.39,1.12c-1.29.75-2.32,1.8-3.07,3.15-.75,1.35-1.12,2.92-1.12,4.72s.37,3.34,1.12,4.7c.75,1.36,1.77,2.42,3.07,3.17,1.29.75,2.76,1.12,4.39,1.12Z"/>
    <path class="cls-1" d="M788.5,865.6v-21.34h1.96v5.93l-.29-.65c.65-1.69,1.73-3.02,3.23-3.99,1.5-.97,3.34-1.45,5.52-1.45,1.74,0,3.26.33,4.56,1,1.29.67,2.3,1.68,3.02,3.02.72,1.35,1.08,3.02,1.08,5.01v12.47h-2.04v-12.3c0-2.4-.61-4.22-1.82-5.48-1.21-1.25-2.91-1.88-5.09-1.88-1.66,0-3.11.34-4.33,1.02-1.23.68-2.16,1.64-2.8,2.86-.64,1.23-.96,2.7-.96,4.41v11.36h-2.04Z"/>
    <path class="cls-1" d="M824.68,865.76c-2.15,0-4.05-.46-5.7-1.39-1.65-.93-2.94-2.21-3.88-3.84-.94-1.63-1.41-3.5-1.41-5.6s.44-4,1.33-5.62c.89-1.62,2.11-2.9,3.66-3.82,1.55-.93,3.3-1.39,5.23-1.39s3.67.45,5.21,1.35c1.54.9,2.75,2.16,3.64,3.78.89,1.62,1.33,3.5,1.33,5.62,0,.08,0,.17-.02.27-.01.1-.02.2-.02.31h-18.84v-1.59h17.74l-.82.78c.03-1.66-.32-3.15-1.04-4.48-.72-1.32-1.7-2.36-2.92-3.11-1.23-.75-2.64-1.12-4.25-1.12s-2.99.37-4.23,1.12c-1.24.75-2.21,1.79-2.92,3.11-.71,1.32-1.06,2.83-1.06,4.52v.37c0,1.74.39,3.29,1.17,4.64.78,1.35,1.85,2.4,3.21,3.15,1.36.75,2.92,1.12,4.66,1.12,1.36,0,2.64-.24,3.82-.74,1.19-.49,2.19-1.24,3-2.25l1.19,1.35c-.93,1.14-2.09,2.01-3.5,2.6-1.4.59-2.92.88-4.56.88Z"/>
    <path class="cls-1" d="M840.17,847.57c-.46,0-.87-.17-1.21-.51-.34-.34-.51-.76-.51-1.25s.17-.9.51-1.23c.34-.33.74-.49,1.21-.49s.87.16,1.21.49c.34.33.51.74.51,1.23s-.17.91-.51,1.25c-.34.34-.74.51-1.21.51ZM840.17,865.76c-.46,0-.87-.17-1.21-.51-.34-.34-.51-.76-.51-1.25s.17-.9.51-1.23c.34-.33.74-.49,1.21-.49s.87.16,1.21.49c.34.33.51.74.51,1.23s-.17.91-.51,1.25c-.34.34-.74.51-1.21.51Z"/>
    <path class="cls-1" d="M857.71,852.19v-1.76h17.37v1.76h-17.37ZM865.47,859.75v-16.92h1.84v16.92h-1.84Z"/>
    <path class="cls-1" d="M887.67,865.8c-1.23,0-2.39-.11-3.49-.33-1.1-.22-2.11-.6-3-1.14l.86-1.68c.74.46,1.59.8,2.58,1,.98.2,2,.31,3.07.31,3.22,0,5.79-1.04,7.73-3.13,1.93-2.08,2.9-5.21,2.9-9.38,0-.65-.04-1.46-.12-2.41-.08-.95-.26-1.89-.53-2.82l.74.2c-.19,1.58-.72,2.92-1.59,4.03-.87,1.1-1.98,1.96-3.33,2.56s-2.86.9-4.52.9c-1.91,0-3.58-.35-5.01-1.04-1.43-.7-2.55-1.68-3.35-2.96-.8-1.28-1.21-2.78-1.21-4.5s.42-3.26,1.25-4.56c.83-1.29,1.96-2.3,3.39-3,1.43-.71,3.06-1.06,4.88-1.06,2.51,0,4.61.57,6.32,1.72,1.7,1.14,2.99,2.79,3.86,4.93.87,2.14,1.31,4.71,1.31,7.71,0,3.22-.53,5.91-1.59,8.09s-2.55,3.82-4.46,4.93c-1.91,1.1-4.13,1.66-6.66,1.66ZM889.22,852.11c1.55,0,2.93-.3,4.13-.9s2.13-1.42,2.8-2.45c.67-1.04,1-2.19,1-3.47,0-1.12-.31-2.19-.94-3.21-.63-1.02-1.54-1.86-2.74-2.51-1.2-.65-2.7-.98-4.5-.98-1.5,0-2.81.28-3.92.84-1.12.56-2,1.34-2.64,2.35-.64,1.01-.96,2.21-.96,3.6,0,2.04.7,3.68,2.08,4.91,1.39,1.23,3.28,1.84,5.68,1.84Z"/>
    <path class="cls-1" d="M916.08,865.8c-2.18,0-4.11-.59-5.8-1.76-1.69-1.17-3.01-2.84-3.97-5.01-.95-2.17-1.43-4.75-1.43-7.75s.48-5.58,1.43-7.75c.95-2.17,2.28-3.84,3.97-5.01,1.69-1.17,3.62-1.76,5.8-1.76s4.15.59,5.82,1.76c1.68,1.17,2.99,2.84,3.95,5.01.95,2.17,1.43,4.75,1.43,7.75s-.48,5.58-1.43,7.75c-.95,2.17-2.27,3.84-3.95,5.01-1.68,1.17-3.62,1.76-5.82,1.76ZM916.08,863.88c1.83,0,3.42-.5,4.78-1.49,1.36-.99,2.43-2.43,3.19-4.31.76-1.88,1.14-4.14,1.14-6.79s-.38-4.94-1.14-6.81c-.76-1.87-1.83-3.3-3.19-4.29-1.36-.99-2.96-1.49-4.78-1.49s-3.39.5-4.76,1.49c-1.38,1-2.45,2.43-3.21,4.29-.76,1.87-1.14,4.14-1.14,6.81s.38,4.9,1.14,6.79c.76,1.88,1.83,3.32,3.21,4.31s2.96,1.49,4.76,1.49Z"/>
    <path class="cls-1" d="M951.15,865.8c-2.07,0-4.01-.35-5.82-1.06-1.81-.71-3.22-1.63-4.23-2.78l1.06-1.59c.87,1.01,2.1,1.85,3.68,2.51,1.58.67,3.34,1,5.27,1,2.64,0,4.63-.6,5.97-1.8,1.34-1.2,2-2.75,2-4.66,0-1.36-.31-2.53-.94-3.52-.63-.98-1.69-1.74-3.19-2.27-1.5-.53-3.54-.8-6.13-.8h-5.8l1.51-13.86h15.17v1.88h-14.31l1.02-.98-1.35,12.14-.98-1.06h5.19c2.92,0,5.24.35,6.97,1.04,1.73.7,2.98,1.67,3.76,2.92.78,1.25,1.17,2.73,1.17,4.41,0,1.58-.37,3.01-1.1,4.29-.74,1.28-1.85,2.3-3.33,3.05-1.49.75-3.35,1.12-5.58,1.12Z"/>
    <path class="cls-1" d="M973.26,865.8c-2.1,0-4.05-.35-5.87-1.06-1.81-.71-3.22-1.63-4.23-2.78l1.06-1.59c.87,1.01,2.11,1.85,3.7,2.51,1.59.67,3.37,1,5.33,1,2.56,0,4.52-.57,5.87-1.72s2.02-2.68,2.02-4.62-.67-3.44-2.02-4.6-3.45-1.74-6.32-1.74h-1.8v-1.51l9.12-11.65.29.82h-16.19v-1.88h17.95v1.47l-9.07,11.65-.9-.65h.9c3.41,0,5.95.75,7.64,2.25,1.69,1.5,2.53,3.45,2.53,5.85,0,1.58-.37,3-1.12,4.25-.75,1.25-1.87,2.23-3.35,2.94-1.49.71-3.33,1.06-5.54,1.06Z"/>
    <path class="cls-1" d="M996.16,865.8c-2.07,0-4.01-.35-5.82-1.06-1.81-.71-3.22-1.63-4.23-2.78l1.06-1.59c.87,1.01,2.1,1.85,3.68,2.51,1.58.67,3.34,1,5.27,1,2.64,0,4.63-.6,5.97-1.8,1.34-1.2,2-2.75,2-4.66,0-1.36-.31-2.53-.94-3.52-.63-.98-1.69-1.74-3.19-2.27-1.5-.53-3.54-.8-6.13-.8h-5.8l1.51-13.86h15.17v1.88h-14.31l1.02-.98-1.35,12.14-.98-1.06h5.19c2.92,0,5.24.35,6.97,1.04,1.73.7,2.98,1.67,3.76,2.92.78,1.25,1.17,2.73,1.17,4.41,0,1.58-.37,3.01-1.1,4.29-.74,1.28-1.85,2.3-3.33,3.05-1.49.75-3.35,1.12-5.58,1.12Z"/>
    <path class="cls-1" d="M1025.67,865.6l12.59-27.63.74.9h-18.27l1.06-.98v6.46h-2.04v-7.36h20.52v1.47l-12.3,27.14h-2.29Z"/>
    <path class="cls-1" d="M1043.78,865.6v-1.47l12.1-12.02c1.14-1.14,2-2.15,2.58-3s.96-1.66,1.17-2.39c.2-.74.31-1.46.31-2.17,0-1.8-.61-3.22-1.84-4.27-1.23-1.05-3.02-1.57-5.4-1.57-1.8,0-3.37.27-4.72.82-1.35.55-2.51,1.38-3.5,2.49l-1.47-1.31c1.09-1.25,2.47-2.22,4.15-2.9,1.68-.68,3.58-1.02,5.7-1.02,1.88,0,3.51.31,4.88.92,1.38.61,2.44,1.49,3.19,2.62.75,1.13,1.12,2.47,1.12,4.03,0,.93-.13,1.83-.39,2.72-.26.89-.72,1.82-1.39,2.8-.67.98-1.63,2.1-2.88,3.35l-11.36,11.32-.7-.82h18.11v1.88h-19.66Z"/>
    <path class="cls-1" d="M1072.31,865.6l12.59-27.63.74.9h-18.27l1.06-.98v6.46h-2.04v-7.36h20.52v1.47l-12.3,27.14h-2.29Z"/>
    <path class="cls-1" d="M1101,857.67v-1.51l15.53-19.17h2.33l-15.49,19.17-1.14-.33h23.14v1.84h-24.36ZM1117.31,865.6v-7.93l.04-1.84v-6.99h2v16.76h-2.04Z"/>
    <path class="cls-1" d="M1139.43,865.8c-2.18,0-4.11-.59-5.8-1.76-1.69-1.17-3.01-2.84-3.97-5.01-.95-2.17-1.43-4.75-1.43-7.75s.48-5.58,1.43-7.75c.95-2.17,2.28-3.84,3.97-5.01,1.69-1.17,3.62-1.76,5.8-1.76s4.15.59,5.82,1.76c1.68,1.17,2.99,2.84,3.95,5.01.95,2.17,1.43,4.75,1.43,7.75s-.48,5.58-1.43,7.75c-.95,2.17-2.27,3.84-3.95,5.01-1.68,1.17-3.62,1.76-5.82,1.76ZM1139.43,863.88c1.83,0,3.42-.5,4.78-1.49,1.36-.99,2.43-2.43,3.19-4.31.76-1.88,1.14-4.14,1.14-6.79s-.38-4.94-1.14-6.81c-.76-1.87-1.83-3.3-3.19-4.29-1.36-.99-2.96-1.49-4.78-1.49s-3.39.5-4.76,1.49c-1.38,1-2.45,2.43-3.21,4.29-.76,1.87-1.14,4.14-1.14,6.81s.38,4.9,1.14,6.79c.76,1.88,1.83,3.32,3.21,4.31s2.96,1.49,4.76,1.49Z"/>
    <path class="cls-1" d="M1165.14,857.67v-1.51l15.53-19.17h2.33l-15.49,19.17-1.14-.33h23.14v1.84h-24.36ZM1181.45,865.6v-7.93l.04-1.84v-6.99h2v16.76h-2.04Z"/>
    <path class="cls-1" d="M1203.56,865.8c-2.18,0-4.11-.59-5.8-1.76-1.69-1.17-3.01-2.84-3.97-5.01-.95-2.17-1.43-4.75-1.43-7.75s.48-5.58,1.43-7.75c.95-2.17,2.28-3.84,3.97-5.01,1.69-1.17,3.62-1.76,5.8-1.76s4.15.59,5.82,1.76c1.68,1.17,2.99,2.84,3.95,5.01.95,2.17,1.43,4.75,1.43,7.75s-.48,5.58-1.43,7.75c-.95,2.17-2.27,3.84-3.95,5.01-1.68,1.17-3.62,1.76-5.82,1.76ZM1203.56,863.88c1.83,0,3.42-.5,4.78-1.49,1.36-.99,2.43-2.43,3.19-4.31.76-1.88,1.14-4.14,1.14-6.79s-.38-4.94-1.14-6.81c-.76-1.87-1.83-3.3-3.19-4.29-1.36-.99-2.96-1.49-4.78-1.49s-3.39.5-4.76,1.49c-1.38,1-2.45,2.43-3.21,4.29-.76,1.87-1.14,4.14-1.14,6.81s.38,4.9,1.14,6.79c.76,1.88,1.83,3.32,3.21,4.31s2.96,1.49,4.76,1.49Z"/>
    <path class="cls-1" d="M754.14,930.05v-28.61h2.08v26.73h16.47v1.88h-18.56Z"/>
    <path class="cls-1" d="M785.37,930.22c-2.04,0-3.86-.46-5.46-1.39-1.59-.93-2.86-2.21-3.8-3.84-.94-1.63-1.41-3.5-1.41-5.6s.47-4,1.41-5.62c.94-1.62,2.21-2.9,3.8-3.82,1.59-.93,3.41-1.39,5.46-1.39s3.87.46,5.48,1.39c1.61.93,2.87,2.2,3.8,3.82.93,1.62,1.39,3.5,1.39,5.62s-.46,3.97-1.39,5.6c-.93,1.64-2.19,2.92-3.8,3.84-1.61.93-3.43,1.39-5.48,1.39ZM785.37,928.38c1.63,0,3.11-.37,4.41-1.12,1.31-.75,2.33-1.81,3.07-3.17s1.1-2.93,1.1-4.7-.37-3.37-1.1-4.72c-.74-1.35-1.76-2.4-3.07-3.15-1.31-.75-2.78-1.12-4.41-1.12s-3.1.37-4.39,1.12c-1.29.75-2.32,1.8-3.07,3.15-.75,1.35-1.12,2.92-1.12,4.72s.37,3.34,1.12,4.7c.75,1.36,1.77,2.42,3.07,3.17,1.29.75,2.76,1.12,4.39,1.12Z"/>
    <path class="cls-1" d="M810.84,930.22c-2.07,0-3.92-.46-5.54-1.39-1.62-.93-2.9-2.21-3.84-3.84-.94-1.63-1.41-3.5-1.41-5.6s.47-4.01,1.41-5.64c.94-1.63,2.22-2.91,3.84-3.82,1.62-.91,3.47-1.37,5.54-1.37,1.72,0,3.28.33,4.68.98s2.54,1.63,3.41,2.94l-1.51,1.1c-.76-1.09-1.72-1.89-2.86-2.41-1.14-.52-2.38-.78-3.72-.78-1.66,0-3.15.37-4.48,1.12-1.32.75-2.36,1.8-3.11,3.15-.75,1.35-1.12,2.92-1.12,4.72s.37,3.37,1.12,4.72c.75,1.35,1.78,2.4,3.11,3.15,1.32.75,2.81,1.12,4.48,1.12,1.34,0,2.58-.26,3.72-.78,1.14-.52,2.1-1.32,2.86-2.41l1.51,1.1c-.87,1.31-2.01,2.29-3.41,2.94s-2.96.98-4.68.98Z"/>
    <path class="cls-1" d="M830.83,930.22c-1.58,0-2.95-.25-4.11-.76-1.16-.5-2.04-1.22-2.66-2.15-.61-.93-.92-1.99-.92-3.19,0-1.09.25-2.08.76-2.96.5-.89,1.34-1.61,2.51-2.17,1.17-.56,2.74-.84,4.7-.84h7.85v1.59h-7.81c-2.21,0-3.75.41-4.64,1.23-.89.82-1.33,1.84-1.33,3.07,0,1.36.52,2.45,1.55,3.27,1.04.82,2.49,1.23,4.37,1.23s3.32-.41,4.56-1.23c1.24-.82,2.16-2,2.76-3.56l.57,1.39c-.57,1.55-1.55,2.79-2.92,3.7-1.38.91-3.13,1.37-5.25,1.37ZM838.51,930.05v-4.86l-.08-.74v-8.01c0-1.99-.54-3.5-1.61-4.54-1.08-1.04-2.65-1.55-4.72-1.55-1.47,0-2.84.25-4.11.76-1.27.5-2.35,1.15-3.25,1.94l-1.02-1.47c1.06-.95,2.34-1.7,3.84-2.23,1.5-.53,3.07-.8,4.7-.8,2.64,0,4.67.67,6.09,2,1.42,1.34,2.13,3.32,2.13,5.97v13.53h-1.96Z"/>
    <path class="cls-1" d="M845.38,910.47v-1.76h12.75v1.76h-12.75ZM855.11,930.22c-1.88,0-3.32-.52-4.31-1.55-.99-1.04-1.49-2.45-1.49-4.25v-20.36h2.04v20.15c0,1.36.34,2.41,1.02,3.15.68.74,1.66,1.1,2.94,1.1s2.44-.39,3.31-1.19l.86,1.43c-.55.52-1.21.9-1.98,1.14-.78.24-1.57.37-2.39.37Z"/>
    <path class="cls-1" d="M866.19,903.52c-.46,0-.86-.16-1.19-.49-.33-.33-.49-.71-.49-1.14,0-.46.16-.86.49-1.19.33-.33.72-.49,1.19-.49.49,0,.89.16,1.21.47.31.31.47.7.47,1.16s-.16.86-.47,1.19c-.31.33-.72.49-1.21.49ZM865.17,930.05v-21.34h2.04v21.34h-2.04Z"/>
    <path class="cls-1" d="M884.17,930.22c-2.04,0-3.86-.46-5.46-1.39-1.59-.93-2.86-2.21-3.8-3.84-.94-1.63-1.41-3.5-1.41-5.6s.47-4,1.41-5.62c.94-1.62,2.21-2.9,3.8-3.82,1.59-.93,3.41-1.39,5.46-1.39s3.87.46,5.48,1.39c1.61.93,2.87,2.2,3.8,3.82.93,1.62,1.39,3.5,1.39,5.62s-.46,3.97-1.39,5.6c-.93,1.64-2.19,2.92-3.8,3.84-1.61.93-3.43,1.39-5.48,1.39ZM884.17,928.38c1.63,0,3.11-.37,4.41-1.12,1.31-.75,2.33-1.81,3.07-3.17s1.1-2.93,1.1-4.7-.37-3.37-1.1-4.72c-.74-1.35-1.76-2.4-3.07-3.15-1.31-.75-2.78-1.12-4.41-1.12s-3.1.37-4.39,1.12c-1.29.75-2.32,1.8-3.07,3.15-.75,1.35-1.12,2.92-1.12,4.72s.37,3.34,1.12,4.7c.75,1.36,1.77,2.42,3.07,3.17,1.29.75,2.76,1.12,4.39,1.12Z"/>
    <path class="cls-1" d="M901.18,930.05v-21.34h1.96v5.93l-.29-.65c.65-1.69,1.73-3.02,3.23-3.99,1.5-.97,3.34-1.45,5.52-1.45,1.74,0,3.26.33,4.56,1,1.29.67,2.3,1.68,3.02,3.02.72,1.35,1.08,3.02,1.08,5.01v12.47h-2.04v-12.3c0-2.4-.61-4.22-1.82-5.48-1.21-1.25-2.91-1.88-5.09-1.88-1.66,0-3.11.34-4.33,1.02-1.23.68-2.16,1.63-2.8,2.86-.64,1.23-.96,2.7-.96,4.41v11.36h-2.04Z"/>
    <path class="cls-1" d="M928.44,912.03c-.46,0-.87-.17-1.21-.51-.34-.34-.51-.76-.51-1.25s.17-.9.51-1.23c.34-.33.74-.49,1.21-.49s.87.16,1.21.49c.34.33.51.74.51,1.23s-.17.91-.51,1.25-.74.51-1.21.51ZM928.44,930.22c-.46,0-.87-.17-1.21-.51-.34-.34-.51-.76-.51-1.25s.17-.9.51-1.23c.34-.33.74-.49,1.21-.49s.87.16,1.21.49c.34.33.51.74.51,1.23s-.17.91-.51,1.25c-.34.34-.74.51-1.21.51Z"/>
    <path class="cls-1" d="M953.5,930.05v-26.73h-10.3v-1.88h22.69v1.88h-10.3v26.73h-2.08Z"/>
    <path class="cls-1" d="M971.04,930.05v-28.61h10.26c3.6,0,6.42.85,8.46,2.53,2.04,1.69,3.07,4.06,3.07,7.11,0,1.99-.46,3.7-1.39,5.13-.93,1.43-2.25,2.53-3.97,3.31s-3.77,1.17-6.17,1.17h-9.12l.94-.98v10.34h-2.08ZM973.12,919.83l-.94-.98h9.12c3.08,0,5.42-.68,7.01-2.04s2.39-3.27,2.39-5.72-.8-4.39-2.39-5.74-3.93-2.02-7.01-2.02h-9.12l.94-1.02v17.54ZM990.9,930.05l-7.44-10.38h2.37l7.44,10.38h-2.37Z"/>
    <path class="cls-1" d="M1015.22,937.98c-1.5-2.48-2.65-5.34-3.45-8.58-.8-3.24-1.21-6.76-1.21-10.55s.4-7.32,1.21-10.61c.8-3.28,1.95-6.12,3.45-8.52h1.96c-1.61,2.73-2.78,5.67-3.52,8.83-.74,3.16-1.1,6.6-1.1,10.3s.37,7.14,1.1,10.3c.74,3.16,1.91,6.1,3.52,8.83h-1.96Z"/>
    <path class="cls-1" d="M1036.32,930.26c-2.15,0-4.14-.36-5.97-1.08-1.83-.72-3.41-1.74-4.76-3.05-1.35-1.31-2.39-2.84-3.13-4.6-.74-1.76-1.1-3.69-1.1-5.78s.37-4.03,1.1-5.78c.74-1.76,1.78-3.29,3.15-4.6,1.36-1.31,2.95-2.32,4.76-3.05,1.81-.72,3.81-1.08,5.99-1.08s3.99.33,5.76.98c1.77.65,3.28,1.64,4.54,2.94l-1.31,1.39c-1.25-1.23-2.62-2.1-4.11-2.62-1.49-.52-3.1-.78-4.84-.78-1.85,0-3.57.31-5.15.94-1.58.63-2.96,1.51-4.13,2.66-1.17,1.15-2.08,2.48-2.72,4.01-.64,1.53-.96,3.19-.96,4.99s.32,3.46.96,4.99c.64,1.53,1.55,2.86,2.72,4.01,1.17,1.14,2.55,2.03,4.13,2.66,1.58.63,3.3.94,5.15.94,1.69,0,3.29-.26,4.8-.78s2.9-1.38,4.15-2.58l1.19,1.59c-1.28,1.23-2.81,2.15-4.6,2.76-1.79.61-3.66.92-5.62.92ZM1046.54,926.58l-2-.24v-10.46h2v10.71Z"/>
    <path class="cls-1" d="M1055.69,930.05v-28.61h1.76l13.29,22.93h-.94l13.24-22.93h1.72l.04,28.61h-2.04l-.04-25.47h.57l-12.55,21.67h-1.02l-12.59-21.67h.61v25.47h-2.04Z"/>
    <path class="cls-1" d="M1100.25,930.05v-26.73h-10.3v-1.88h22.69v1.88h-10.3v26.73h-2.08Z"/>
    <path class="cls-1" d="M1114.47,916.65v-1.76h17.37v1.76h-17.37ZM1122.24,924.21v-16.92h1.84v16.92h-1.84Z"/>
    <path class="cls-1" d="M1144.6,930.26c-2.1,0-4.05-.35-5.87-1.06-1.81-.71-3.22-1.63-4.23-2.78l1.06-1.59c.87,1.01,2.11,1.85,3.7,2.51,1.59.67,3.37,1,5.33,1,2.56,0,4.52-.57,5.87-1.72s2.02-2.68,2.02-4.62-.67-3.44-2.02-4.6-3.45-1.74-6.32-1.74h-1.8v-1.51l9.12-11.65.29.82h-16.19v-1.88h17.95v1.47l-9.07,11.65-.9-.65h.9c3.41,0,5.95.75,7.64,2.25,1.69,1.5,2.53,3.45,2.53,5.85,0,1.58-.37,3-1.12,4.25-.75,1.25-1.87,2.23-3.35,2.94-1.49.71-3.33,1.06-5.54,1.06Z"/>
    <path class="cls-1" d="M1158.74,937.98c1.58-2.73,2.74-5.67,3.47-8.83.74-3.16,1.1-6.59,1.1-10.3s-.37-7.14-1.1-10.3c-.74-3.16-1.89-6.1-3.47-8.83h1.92c1.5,2.4,2.66,5.24,3.47,8.52.82,3.28,1.23,6.82,1.23,10.61s-.41,7.3-1.23,10.55c-.82,3.24-1.98,6.1-3.47,8.58h-1.92Z"/>
  </g>
  <g>
    <path class="cls-1" d="M533.97,706.77c-.33-3.06-.03-6.96.9-11.71.93-4.75,2.24-9.91,3.93-15.48,1.69-5.57,3.66-11.36,5.9-17.37,2.24-6.01,4.48-11.74,6.72-17.2,2.24-5.46,4.37-10.49,6.39-15.07,2.02-4.59,3.63-8.25,4.83-10.98-.33,0-.96.08-1.88.25-.93.16-1.94.33-3.03.49-1.09.16-2.19.3-3.28.41-1.09.11-1.97.22-2.62.33-1.31.11-2.29-.14-2.95-.74-.66-.6-1.01-1.28-1.06-2.05-.06-.76.16-1.47.66-2.13.49-.66,1.23-.98,2.21-.98.55,0,1.12-.03,1.72-.08.6-.05,1.45-.16,2.54-.33,1.09-.16,2.46-.33,4.1-.49s3.71-.41,6.23-.74c1.2-2.62,2.95-6.42,5.24-11.39,2.29-4.97,4.91-10.49,7.86-16.55,2.95-6.06,6.09-12.34,9.42-18.84,3.33-6.5,6.64-12.67,9.91-18.51,3.28-5.84,6.39-11,9.34-15.48,2.95-4.48,5.51-7.64,7.7-9.5,2.51-1.97,4.69-2.95,6.55-2.95,1.75,0,3.44.88,5.08,2.62,1.64,1.86,3.08,4.92,4.34,9.17,1.25,4.26,2.32,9.15,3.19,14.66.87,5.52,1.58,11.33,2.13,17.45.55,6.12,1.01,12.04,1.39,17.78.38,5.73.65,10.95.82,15.65.16,4.7.25,8.3.25,10.81,2.07.11,4.01.27,5.82.49,1.8.22,3.47.77,5,1.64.55.44.93.98,1.15,1.64.22.66.11,1.31-.33,1.97-.44.66-1.06,1.04-1.88,1.15-.82.11-1.5-.16-2.05-.82-.66-.76-1.86-1.31-3.6-1.64-1.75-.33-3.06-.6-3.93-.82.33,10.27.52,19.2.57,26.79.05,7.59.08,14.23.08,19.91s-.03,10.59-.08,14.74c-.06,4.15-.08,7.86-.08,11.14s.05,6.33.16,9.17c.11,2.84.33,5.84.66,9.01.11.98-.19,1.77-.9,2.38-.71.6-1.5.79-2.38.57-.77-.11-1.39-.47-1.88-1.06-.49-.6-.63-1.28-.41-2.05,0,.22.14-.66.41-2.62.27-1.97.46-4.97.57-9.01v-8.27c0-4.53-.11-10.35-.33-17.45-.22-7.1-.52-15.26-.9-24.49-.38-9.23-.9-18.92-1.56-29.08-4.37-.11-9.45.08-15.24.57-5.79.49-11.69,1.09-17.69,1.8-6.01.71-11.88,1.5-17.61,2.38-5.73.88-10.73,1.64-14.99,2.29-.77,1.75-2.08,4.89-3.93,9.42-1.86,4.53-3.91,9.69-6.14,15.48-2.24,5.79-4.51,11.93-6.8,18.43-2.29,6.5-4.29,12.64-5.98,18.43-1.69,5.79-2.87,10.87-3.52,15.24-.66,4.37-.49,7.37.49,9.01.55.87.71,1.86.49,2.95-.22,1.09-.77,1.91-1.64,2.46-.55.44-1.26.66-2.13.66-.98,0-1.86-.33-2.62-.98-.77-.66-1.2-1.47-1.31-2.46ZM569.69,612.41c4.69-.55,9.72-1.09,15.07-1.64,5.35-.55,10.76-1.04,16.22-1.47,5.46-.44,10.89-.82,16.3-1.15,5.41-.33,10.46-.49,15.15-.49-.11-1.86-.33-4.94-.66-9.26-.33-4.31-.71-9.2-1.15-14.66-.44-5.46-.98-11.22-1.64-17.28-.66-6.06-1.39-11.77-2.21-17.12-.82-5.35-1.72-10.02-2.7-14.01-.98-3.99-2.08-6.69-3.28-8.11-1.64.77-4.1,3.11-7.37,7.04-3.28,3.93-7.18,9.48-11.71,16.63-4.53,7.15-9.53,15.84-14.99,26.05-5.46,10.21-11.14,22.04-17.04,35.47Z"/>
    <path class="cls-1" d="M664.87,674.66c-2.73.11-4.86-1.61-6.39-5.16-1.53-3.55-2.6-8.25-3.19-14.09-.6-5.84-.82-12.56-.66-20.15.16-7.59.57-15.45,1.23-23.59.66-8.14,1.53-16.22,2.62-24.25,1.09-8.03,2.24-15.4,3.44-22.12,1.2-6.72,2.43-12.48,3.69-17.28,1.25-4.81,2.38-8.08,3.36-9.83.33-.55.68-.98,1.06-1.31.38-.33.9-.49,1.56-.49.87.22,1.31.77,1.31,1.64,0,.66-.33,1.09-.98,1.31-.77.22-1.53,1.97-2.29,5.24-.77,3.28-1.47,7.32-2.13,12.12-.66,4.81-1.28,10.05-1.88,15.73-.6,5.68-1.12,11-1.56,15.97-.44,4.97-.82,9.28-1.15,12.94-.33,3.66-.49,5.87-.49,6.64-.55,7.76-.96,15.32-1.23,22.69-.27,7.37-.33,13.93-.16,19.66.16,5.73.55,10.35,1.15,13.84.6,3.49,1.5,5.24,2.7,5.24,1.64,0,3.58-1.15,5.82-3.44,2.24-2.29,4.61-5.22,7.13-8.76,2.51-3.55,5.08-7.48,7.7-11.8,2.62-4.32,5.05-8.49,7.29-12.53,2.24-4.04,4.2-7.7,5.9-10.98,1.69-3.28,2.92-5.68,3.69-7.21.33-.76.87-.98,1.64-.66.76.33.98.88.66,1.64-.88,2.08-2.16,4.97-3.85,8.68-1.69,3.71-3.63,7.76-5.82,12.12-2.19,4.37-4.56,8.79-7.13,13.27-2.57,4.48-5.16,8.54-7.78,12.21-2.62,3.66-5.24,6.69-7.86,9.09-2.62,2.4-5.08,3.6-7.37,3.6Z"/>
    <path class="cls-1" d="M701.4,703.99c-.76-.44-1.39-2.43-1.88-5.98-.49-3.55-.84-8.06-1.06-13.52-.22-5.46-.3-11.58-.25-18.35.06-6.77.27-13.65.66-20.64.38-6.99.93-13.84,1.64-20.56.71-6.72,1.61-12.64,2.7-17.78l1.8-9.67c.22-.66.6-1.2,1.15-1.64.55-.44,1.2-.55,1.97-.33.87.22,1.47.74,1.8,1.56.33.82.22,1.67-.33,2.54-.77,1.09-1.45,2.62-2.05,4.59-.6,1.97-1.12,4.12-1.56,6.47-.44,2.35-.82,4.73-1.15,7.13-.33,2.4-.6,4.53-.82,6.39.65-1.97,1.53-4.45,2.62-7.45,1.09-3,2.38-5.92,3.85-8.77,1.47-2.84,3.11-5.27,4.91-7.29,1.8-2.02,3.74-2.97,5.82-2.87,1.97.22,3.55.88,4.75,1.97,1.2,1.09,2.07,2.49,2.62,4.18.55,1.69.82,3.55.82,5.57s-.16,4.01-.49,5.98c.87-.22,1.94-.38,3.19-.49,1.25-.11,2.56-.22,3.93-.33,1.36-.11,2.65-.22,3.85-.33,1.2-.11,2.07-.27,2.62-.49,1.09-.44,1.75-.27,1.97.49.11.44,0,.88-.33,1.31-.33.44-.82.55-1.47.33-.77-.22-1.78-.3-3.03-.25-1.26.06-2.6.16-4.01.33-1.42.16-2.76.38-4.01.66-1.26.27-2.27.52-3.03.74-.55,2.73-1.34,5.3-2.38,7.7-1.04,2.4-2.19,4.51-3.44,6.31-1.26,1.8-2.57,3.22-3.93,4.26-1.37,1.04-2.7,1.56-4.01,1.56-1.42,0-2.73-.66-3.93-1.97-.98-1.09-1.45-2.48-1.39-4.18.05-1.69.66-3.44,1.8-5.24,1.15-1.8,2.78-3.52,4.91-5.16,2.13-1.64,4.83-2.95,8.11-3.93,1.53-5.68,1.72-9.83.57-12.45-1.15-2.62-2.7-3.66-4.67-3.11-1.75.44-3.69,2.54-5.82,6.31-2.13,3.77-4.15,8.68-6.06,14.74-1.91,6.06-3.47,13.05-4.67,20.97-1.2,7.92-1.8,16.3-1.8,25.15,0,2.4.14,5,.41,7.78.27,2.79.57,5.57.9,8.36.33,2.79.71,5.51,1.15,8.19.43,2.68.87,5.16,1.31,7.45.22,1.2.16,2.16-.16,2.87-.33.71-1.09,1.17-2.29,1.39-.11.11-.41.08-.9-.08s-.79-.3-.9-.41ZM723.52,619.62c-2.51,1.31-4.42,2.68-5.73,4.1-1.31,1.42-2.24,2.73-2.79,3.93-.55,1.2-.82,2.19-.82,2.95s.05,1.2.16,1.31c.66.33,1.42.11,2.29-.66.87-.76,1.75-1.8,2.62-3.11.87-1.31,1.69-2.73,2.46-4.26.76-1.53,1.36-2.95,1.8-4.26Z"/>
    <path class="cls-1" d="M741.54,629.77c-1.09-2.84-1.45-5.82-1.06-8.93.38-3.11,1.15-6.01,2.29-8.68,1.15-2.68,2.56-4.89,4.26-6.64,1.69-1.75,3.36-2.62,5-2.62,1.86,0,3.33,1.09,4.42,3.28.22.55.16.98-.16,1.31-.33.33-.71.38-1.15.16-.88-.33-1.58-.63-2.13-.9-.55-.27-1.26.03-2.13.9-.77.77-1.56,2.05-2.38,3.85-.82,1.8-1.56,3.8-2.21,5.98-.66,2.19-1.09,4.34-1.31,6.47-.22,2.13-.06,3.85.49,5.16,1.2-.87,2.73-2.81,4.59-5.82,1.86-3,3.49-6.14,4.91-9.42,1.2-2.73,2.4-5.41,3.6-8.03,1.2-2.62,2.51-4.1,3.93-4.42.76-.33,1.47-.16,2.13.49.55.55.79,1.53.74,2.95-.06,1.42-.19,3.19-.41,5.32-.22,2.13-.47,4.51-.74,7.13-.27,2.62-.41,5.35-.41,8.19,0,.44.03,1.15.08,2.13.05.98.14,1.97.25,2.95.11.98.3,1.83.57,2.54.27.71.63,1.01,1.06.9.87-.22,2.05-1.69,3.52-4.42,1.47-2.73,2.95-5.98,4.42-9.75,1.47-3.77,2.84-7.7,4.1-11.8,1.25-4.1,2.16-7.67,2.7-10.73.11-.87.46-1.58,1.06-2.13.6-.55,1.34-.82,2.21-.82,1.2-.11,2.16.3,2.87,1.23.71.93.84,1.99.41,3.19-.55,1.64-.98,3.55-1.31,5.73-.33,2.19-.57,4.42-.74,6.72-.16,2.29-.25,4.56-.25,6.8v5.82c.33-2.95.76-5.73,1.31-8.36.55-2.62,1.23-4.89,2.05-6.8.82-1.91,1.86-3.41,3.11-4.51,1.25-1.09,2.76-1.64,4.51-1.64,2.07,0,4.64.88,7.7,2.62,1.53.88,2.97,1.75,4.34,2.62,1.36.88,2.59,1.37,3.69,1.47.55,0,.84.27.9.82.05.55-.19.88-.74.98-1.31.11-2.76-.16-4.34-.82-1.58-.66-3.14-1.36-4.67-2.13-1.53-.76-3.03-1.42-4.51-1.97-1.47-.55-2.7-.55-3.69,0-1.09.44-1.99,1.61-2.7,3.52-.71,1.91-1.31,4.15-1.8,6.72-.49,2.57-.88,5.3-1.15,8.19-.27,2.9-.52,5.63-.74,8.19-.22,2.57-.38,4.78-.49,6.64-.11,1.86-.27,3-.49,3.44-.33.66-.82,1.04-1.47,1.15-.66.11-1.26-.06-1.8-.49-.44-.22-.79-.77-1.06-1.64-.27-.88-.63-2.51-1.06-4.92-.55-3.82-.93-7.59-1.15-11.3-.22-3.71-.33-7.1-.33-10.16s.05-5.65.16-7.78c.11-2.13.16-3.52.16-4.18-.98,3.71-2.05,7.67-3.19,11.88-1.15,4.21-2.35,8-3.6,11.39-1.26,3.39-2.6,6.09-4.01,8.11-1.42,2.02-3.01,2.81-4.75,2.38-1.86-.44-3.11-1.83-3.77-4.18-.66-2.35-.98-5.08-.98-8.19s.19-6.31.57-9.58c.38-3.28.68-6.06.9-8.36-1.09,1.86-2.24,3.96-3.44,6.31-1.2,2.35-2.38,4.7-3.52,7.04-1.15,2.35-2.27,4.51-3.36,6.47-1.09,1.97-2.13,3.5-3.11,4.59-.98,1.09-2.02,1.64-3.11,1.64-1.53,0-2.73-1.09-3.6-3.28Z"/>
    <path class="cls-1" d="M821.82,624.53c-2.4-.98-3.71-2.62-3.93-4.92-.22-2.29.25-4.69,1.39-7.21,1.15-2.51,2.84-5,5.08-7.45,2.24-2.46,4.56-4.34,6.96-5.65,1.42-.76,2.73-1.15,3.93-1.15,2.07,0,3.36.85,3.85,2.54.49,1.69.74,3.3.74,4.83-.11.77-.44,1.42-.98,1.97-.55.55-1.2.82-1.97.82-1.86-.22-2.78-1.2-2.78-2.95,0-.44.08-.82.25-1.15.16-.33.25-.87.25-1.64-.77.11-1.75.55-2.95,1.31-1.2.77-2.4,1.72-3.6,2.87-1.2,1.15-2.32,2.43-3.36,3.85-1.04,1.42-1.83,2.79-2.38,4.1-.44,1.2-.57,2.46-.41,3.77.16,1.31.68,2.08,1.56,2.29.76.33,1.66.47,2.7.41,1.04-.05,2.13-.19,3.28-.41,1.15-.22,2.32-.44,3.52-.66,1.2-.22,2.35-.33,3.44-.33,1.75,0,3.06.38,3.93,1.15,2.18-1.53,4.51-2.89,6.96-4.1,2.46-1.2,4.94-1.97,7.45-2.29.44,0,.66.16.66.49s-.16.6-.49.82c-2.4.55-4.73,1.45-6.96,2.7-2.24,1.26-4.29,2.65-6.14,4.18.66,1.75.52,4.42-.41,8.03-.93,3.6-2.35,7.15-4.26,10.65-1.91,3.49-4.04,6.58-6.39,9.26-2.35,2.68-4.62,4.01-6.8,4.01-.98,0-1.8-.27-2.46-.82-1.42-1.09-1.91-2.87-1.47-5.32.43-2.46,1.47-5.14,3.11-8.03,1.64-2.89,3.69-5.84,6.14-8.85,2.46-3,5-5.65,7.62-7.95-1.53-.11-3.28.11-5.24.66-1.97.55-3.99.82-6.06.82-1.53,0-2.79-.22-3.77-.66ZM838.2,626c-2.73,2.73-5.11,5.49-7.13,8.27-2.02,2.79-3.66,5.38-4.91,7.78-1.26,2.4-2.08,4.4-2.46,5.98-.38,1.58-.36,2.54.08,2.87.66.44,1.75-.16,3.28-1.8,1.53-1.64,3.11-3.77,4.75-6.39s3.08-5.46,4.34-8.52c1.25-3.06,1.94-5.79,2.05-8.19Z"/>
    <path class="cls-1" d="M860.64,674.66c-2.73.11-4.86-1.61-6.39-5.16-1.53-3.55-2.6-8.25-3.19-14.09-.6-5.84-.82-12.56-.66-20.15.16-7.59.57-15.45,1.23-23.59.66-8.14,1.53-16.22,2.62-24.25,1.09-8.03,2.24-15.4,3.44-22.12,1.2-6.72,2.43-12.48,3.69-17.28,1.25-4.81,2.38-8.08,3.36-9.83.33-.55.68-.98,1.06-1.31.38-.33.9-.49,1.56-.49.87.22,1.31.77,1.31,1.64,0,.66-.33,1.09-.98,1.31-.77.22-1.53,1.97-2.29,5.24-.77,3.28-1.47,7.32-2.13,12.12-.66,4.81-1.28,10.05-1.88,15.73-.6,5.68-1.12,11-1.56,15.97-.44,4.97-.82,9.28-1.15,12.94-.33,3.66-.49,5.87-.49,6.64-.55,7.76-.96,15.32-1.23,22.69-.27,7.37-.33,13.93-.16,19.66.16,5.73.55,10.35,1.15,13.84.6,3.49,1.5,5.24,2.7,5.24,1.64,0,3.58-1.15,5.82-3.44,2.24-2.29,4.61-5.22,7.13-8.76,2.51-3.55,5.08-7.48,7.7-11.8,2.62-4.32,5.05-8.49,7.29-12.53,2.24-4.04,4.2-7.7,5.9-10.98,1.69-3.28,2.92-5.68,3.69-7.21.33-.76.87-.98,1.64-.66.76.33.98.88.66,1.64-.88,2.08-2.16,4.97-3.85,8.68-1.69,3.71-3.63,7.76-5.82,12.12-2.19,4.37-4.56,8.79-7.13,13.27-2.57,4.48-5.16,8.54-7.78,12.21-2.62,3.66-5.24,6.69-7.86,9.09-2.62,2.4-5.08,3.6-7.37,3.6Z"/>
    <path class="cls-1" d="M905.37,630.1c-1.64,2.08-3.11,3.11-4.42,3.11-1.2,0-2.21-.74-3.03-2.21s-1.34-3.33-1.56-5.57c-.22-2.24-.08-4.7.41-7.37.49-2.68,1.45-5.27,2.87-7.78.55-.87,1.15-1.8,1.8-2.79.66-.98,1.39-1.83,2.21-2.54.82-.71,1.69-1.23,2.62-1.56.93-.33,1.88-.33,2.87,0,1.42.44,2.46,1.42,3.11,2.95.44.66.33,1.09-.33,1.31-.55.33-1.09.22-1.64-.33-.55-.55-1.26-.71-2.13-.49-.88.22-1.83,1.23-2.87,3.03-1.04,1.8-1.94,3.91-2.7,6.31-.77,2.4-1.28,4.81-1.56,7.21-.27,2.4-.14,4.37.41,5.9.66-.55,1.42-1.34,2.29-2.38.87-1.04,1.72-2.24,2.54-3.6.82-1.36,1.61-2.79,2.38-4.26.76-1.47,1.42-2.81,1.97-4.01.66-1.53,1.28-3.06,1.88-4.59.6-1.53,1.23-2.95,1.88-4.26.65-1.31,1.36-2.4,2.13-3.28.76-.87,1.53-1.36,2.29-1.47,1.2-.22,1.94.22,2.21,1.31.27,1.09.33,2.65.16,4.67-.16,2.02-.41,4.42-.74,7.21-.33,2.79-.55,5.87-.66,9.26v2.79c0,1.2.08,2.38.25,3.52.16,1.15.38,2.13.66,2.95.27.82.68,1.17,1.23,1.06.98-.33,2.24-1.75,3.77-4.26,1.53-2.51,3.08-5.54,4.67-9.09,1.58-3.55,3.08-7.32,4.51-11.3,1.42-3.99,2.46-7.56,3.11-10.73.22-1.09.74-1.86,1.56-2.29.82-.44,1.66-.55,2.54-.33,1.2.22,2.02.85,2.46,1.88.44,1.04.33,2.05-.33,3.03-.88,1.42-1.58,3.69-2.13,6.8-.55,3.11-.96,6.42-1.23,9.91-.27,3.5-.36,6.86-.25,10.08.11,3.22.38,5.76.82,7.62.87-1.53,1.75-3.58,2.62-6.14.87-2.57,1.77-5.24,2.7-8.03.93-2.79,1.97-5.57,3.11-8.36,1.15-2.79,2.35-5.24,3.6-7.37,1.25-2.13,2.65-3.71,4.18-4.75,1.53-1.04,3.22-1.23,5.08-.57,1.97.66,3.44,1.97,4.42,3.93.98,1.97,1.77,4.1,2.38,6.39.6,2.29,1.2,4.53,1.8,6.72.6,2.19,1.56,3.88,2.87,5.08.76.55,1.53.82,2.29.82,1.09,0,2.32-.33,3.69-.98,1.36-.66,2.78-1.47,4.26-2.46s2.89-2.02,4.26-3.11c1.36-1.09,2.59-2.07,3.69-2.95.33-.22.66-.16.98.16s.33.6,0,.82c-4.04,4.04-7.4,6.86-10.08,8.44-2.68,1.58-4.94,2.38-6.8,2.38-1.64,0-2.98-.49-4.01-1.47-1.04-.98-1.91-2.24-2.62-3.77-.71-1.53-1.31-3.19-1.8-5-.49-1.8-1.04-3.52-1.64-5.16-.6-1.64-1.26-3.08-1.97-4.34-.71-1.25-1.61-2.05-2.7-2.38-1.2-.44-2.38.03-3.52,1.39-1.15,1.37-2.24,3.22-3.28,5.57-1.04,2.35-2.02,5-2.95,7.95-.93,2.95-1.86,5.84-2.78,8.68-.93,2.84-1.8,5.43-2.62,7.78-.82,2.35-1.67,4.01-2.54,5-.77.98-1.75,1.47-2.95,1.47-1.31,0-2.35-.71-3.11-2.13-.66-1.2-1.17-2.95-1.56-5.24-.38-2.29-.63-4.8-.74-7.54-.11-2.73-.11-5.49,0-8.27.11-2.79.27-5.32.49-7.62l-2.46,7.54c-.44,1.42-1.09,3.28-1.97,5.57-.88,2.29-1.83,4.51-2.87,6.64-1.04,2.13-2.21,3.93-3.52,5.41-1.31,1.47-2.68,2.1-4.1,1.88-1.97-.33-3.31-1.64-4.01-3.93-.71-2.29-1.06-5-1.06-8.11s.19-6.36.57-9.75c.38-3.38.68-6.28.9-8.68-.98,1.75-2.02,3.69-3.11,5.82-1.09,2.13-2.16,4.26-3.19,6.39-1.04,2.13-2.05,4.15-3.03,6.06-.98,1.91-1.97,3.52-2.95,4.83Z"/>
    <path class="cls-1" d="M1063.3,628.46c-4.91-.44-8.96-2.18-12.12-5.24-3.17-3.06-5.6-6.93-7.29-11.63-1.69-4.69-2.7-9.99-3.03-15.89-.33-5.9-.14-11.93.57-18.1.71-6.17,1.88-12.29,3.52-18.35,1.64-6.06,3.6-11.55,5.9-16.47,2.29-4.91,4.86-9.06,7.7-12.45,2.84-3.38,5.79-5.51,8.85-6.39.87-.22,1.72-.11,2.54.33.82.44,1.34,1.15,1.56,2.13.44,1.2.25,2.27-.57,3.19-.82.93-1.83,1.28-3.03,1.06-1.2-.11-2.35.27-3.44,1.15-1.09.88-2.02,1.75-2.78,2.62-2.73,3.06-5.27,7.45-7.62,13.19-2.35,5.73-4.26,11.99-5.73,18.76-1.47,6.77-2.38,13.65-2.7,20.64-.33,6.99.19,13.27,1.56,18.84,1.36,5.57,3.74,10.02,7.13,13.35,3.38,3.33,7.97,4.73,13.76,4.18,4.8-.44,9.47-2.13,14.01-5.08,4.53-2.95,8.87-6.72,13.02-11.3,4.15-4.59,8.11-9.72,11.88-15.4,3.77-5.68,7.34-11.52,10.73-17.53,3.38-6.01,6.52-11.93,9.42-17.78,2.89-5.84,5.57-11.19,8.03-16.06,2.46-4.86,4.67-8.98,6.64-12.37,1.97-3.38,3.66-5.62,5.08-6.72.98-.66,1.91-.98,2.78-.98,1.75,0,2.95,1.04,3.6,3.11.44,1.97.41,5.63-.08,10.98-.49,5.35-1.39,11.8-2.7,19.33-1.31,7.54-2.92,15.78-4.83,24.74-1.91,8.96-4.01,17.97-6.31,27.03,1.75.44,3.47,1.04,5.16,1.8,1.69.77,3.3,1.56,4.83,2.38,1.53.82,2.95,1.64,4.26,2.46,1.31.82,2.46,1.5,3.44,2.05.66.33,1.06.85,1.23,1.56.16.71.08,1.34-.25,1.88-.33.66-.85,1.06-1.56,1.23-.71.16-1.34.08-1.88-.25-.33-.22-.85-.71-1.56-1.47-.71-.76-1.67-1.66-2.87-2.7-1.2-1.04-2.76-2.07-4.67-3.11-1.91-1.04-4.23-1.88-6.96-2.54-1.2,4.59-2.79,10.27-4.75,17.04-1.97,6.77-4.26,13.84-6.88,21.22-2.62,7.37-5.54,14.72-8.77,22.04-3.22,7.32-6.69,13.87-10.4,19.66-3.71,5.79-7.7,10.46-11.96,14.01-4.26,3.55-8.68,5.21-13.27,5-4.37-.44-7.62-2.29-9.75-5.57s-3.33-7.45-3.6-12.53c-.27-5.08.3-10.81,1.72-17.2,1.42-6.39,3.52-12.81,6.31-19.25,2.79-6.45,6.17-12.73,10.16-18.84,3.99-6.12,8.44-11.47,13.35-16.06,4.92-4.59,10.18-8.16,15.81-10.73,5.62-2.57,11.44-3.58,17.45-3.03,1.86-7.21,3.58-14.52,5.16-21.95,1.58-7.43,2.97-14.52,4.18-21.3,1.2-6.77,2.21-12.94,3.03-18.51.82-5.57,1.28-10.1,1.39-13.6-2.08,3.28-4.64,8.08-7.7,14.42-3.06,6.34-6.58,13.3-10.57,20.89-3.99,7.59-8.38,15.32-13.19,23.18-4.81,7.86-9.99,14.94-15.56,21.22-5.57,6.28-11.47,11.3-17.69,15.07-6.23,3.77-12.78,5.32-19.66,4.67ZM1132.93,607.66c-5.57-.44-10.9.57-15.97,3.03-5.08,2.46-9.86,5.84-14.34,10.16-4.48,4.32-8.52,9.31-12.12,14.99-3.6,5.68-6.72,11.52-9.34,17.53-2.62,6.01-4.64,11.93-6.06,17.78-1.42,5.84-2.13,11.11-2.13,15.81s.79,8.52,2.38,11.47c1.58,2.95,4.07,4.59,7.45,4.91,4.04.11,7.92-1.64,11.63-5.24,3.71-3.6,7.26-8.3,10.65-14.09,3.38-5.79,6.55-12.26,9.5-19.41,2.95-7.15,5.62-14.31,8.03-21.46,2.4-7.15,4.48-13.87,6.23-20.15,1.75-6.28,3.11-11.39,4.1-15.32Z"/>
    <path class="cls-1" d="M1163.4,640.09c-.98-2.18-1.69-5.13-2.13-8.85-.44-3.71-.68-7.62-.74-11.71-.05-4.1.03-8.08.25-11.96.22-3.88.38-7.02.49-9.42.11-1.09.49-1.88,1.15-2.38s1.42-.74,2.29-.74,1.72.33,2.54.98c.82.66,1.17,1.58,1.06,2.79-.44,3.17-.77,5.95-.98,8.36-.22,2.4-.44,5.11-.66,8.11-.22,3.01-.36,5.95-.41,8.85-.06,2.9.03,5.57.25,8.03.22,2.46.6,4.45,1.15,5.98.66,1.42,1.58,2.13,2.79,2.13,2.51,0,6.2-2.4,11.06-7.21,4.86-4.81,10.57-10.87,17.12-18.19.33-.44.66-.49.98-.16.33.33.38.71.16,1.15-2.62,2.95-5.14,5.93-7.54,8.93-2.4,3.01-4.7,5.82-6.88,8.44-2.19,2.62-4.32,4.89-6.39,6.8-2.08,1.91-4.1,3.25-6.06,4.01-1.86.55-3.66.55-5.41,0-1.75-.55-3.11-1.86-4.1-3.93Z"/>
    <path class="cls-1" d="M1204.68,674.66c-2.73.11-4.86-1.61-6.39-5.16-1.53-3.55-2.6-8.25-3.19-14.09-.6-5.84-.82-12.56-.66-20.15.16-7.59.57-15.45,1.23-23.59.66-8.14,1.53-16.22,2.62-24.25,1.09-8.03,2.24-15.4,3.44-22.12,1.2-6.72,2.43-12.48,3.69-17.28,1.25-4.81,2.38-8.08,3.36-9.83.33-.55.68-.98,1.06-1.31.38-.33.9-.49,1.56-.49.87.22,1.31.77,1.31,1.64,0,.66-.33,1.09-.98,1.31-.77.22-1.53,1.97-2.29,5.24-.77,3.28-1.47,7.32-2.13,12.12-.66,4.81-1.28,10.05-1.88,15.73-.6,5.68-1.12,11-1.56,15.97-.44,4.97-.82,9.28-1.15,12.94-.33,3.66-.49,5.87-.49,6.64-.55,7.76-.96,15.32-1.23,22.69-.27,7.37-.33,13.93-.16,19.66.16,5.73.55,10.35,1.15,13.84.6,3.49,1.5,5.24,2.7,5.24,1.64,0,3.58-1.15,5.82-3.44,2.24-2.29,4.61-5.22,7.13-8.76,2.51-3.55,5.08-7.48,7.7-11.8,2.62-4.32,5.05-8.49,7.29-12.53,2.24-4.04,4.2-7.7,5.9-10.98,1.69-3.28,2.92-5.68,3.69-7.21.33-.76.87-.98,1.64-.66.76.33.98.88.66,1.64-.88,2.08-2.16,4.97-3.85,8.68-1.69,3.71-3.63,7.76-5.82,12.12-2.19,4.37-4.56,8.79-7.13,13.27-2.57,4.48-5.16,8.54-7.78,12.21-2.62,3.66-5.24,6.69-7.86,9.09-2.62,2.4-5.08,3.6-7.37,3.6Z"/>
    <path class="cls-1" d="M1244,639.6c-1.75-.98-2.81-2.89-3.19-5.73-.38-2.84-.46-6.09-.25-9.75.22-3.66.49-7.4.82-11.22.33-3.82.33-7.15,0-9.99-.22-.87-.03-1.69.57-2.46.6-.76,1.39-1.25,2.38-1.47,1.2-.22,2.24.11,3.11.98.87.88,1.2,1.91.98,3.11-.11.98-.49,3.3-1.15,6.96-.66,3.66-1.2,7.51-1.64,11.55-.44,4.04-.66,7.56-.66,10.57s.49,4.34,1.47,4.01c.87-.33,1.83-1.42,2.87-3.28,1.04-1.86,2.16-4.04,3.36-6.55,1.2-2.51,2.51-5.19,3.93-8.03,1.42-2.84,2.87-5.38,4.34-7.62,1.47-2.24,2.95-3.99,4.42-5.24,1.47-1.25,2.97-1.56,4.51-.9,1.53.66,2.35,2.27,2.46,4.83.11,2.57-.03,5.35-.41,8.36-.38,3.01-.74,5.87-1.06,8.6-.33,2.73-.16,4.59.49,5.57.33.44,1.04.06,2.13-1.15,1.09-1.2,2.38-2.68,3.85-4.42,1.47-1.75,3.06-3.44,4.75-5.08,1.69-1.64,3.3-2.68,4.83-3.11,1.64-.44,2.95-.22,3.93.66.98.88,1.8,1.94,2.46,3.19.66,1.26,1.17,2.51,1.56,3.77.38,1.26.74,2.1,1.06,2.54.55.88,1.97.25,4.26-1.88,2.29-2.13,5.19-6.09,8.68-11.88.22-.33.55-.38.98-.16.43.22.55.49.33.82-.65,1.31-1.5,2.87-2.54,4.67-1.04,1.8-2.19,3.55-3.44,5.24-1.26,1.69-2.54,3.11-3.85,4.26-1.31,1.15-2.62,1.72-3.93,1.72-.77,0-1.42-.22-1.97-.66-.55-.44-1.06-1.2-1.56-2.29-.49-1.09-.98-2.18-1.47-3.28-.49-1.09-1.01-2.02-1.56-2.79-.55-.76-1.26-.98-2.13-.66-1.2.44-2.46,1.47-3.77,3.11-1.31,1.64-2.68,3.36-4.1,5.16-1.42,1.8-2.84,3.39-4.26,4.75-1.42,1.37-2.9,1.99-4.42,1.88-1.86-.22-3.09-1.09-3.69-2.62-.6-1.53-.9-3.41-.9-5.65s.22-4.56.66-6.96c.44-2.4.82-4.53,1.15-6.39.11-.87.22-1.86.33-2.95.11-1.09.14-2.05.08-2.87-.06-.82-.25-1.45-.57-1.88-.33-.44-.88-.38-1.64.16-1.31.88-2.57,2.32-3.77,4.34-1.2,2.02-2.32,4.26-3.36,6.72-1.04,2.46-2.08,5-3.11,7.62-1.04,2.62-2.08,5-3.11,7.13-1.04,2.13-2.13,3.88-3.28,5.24s-2.38,2.05-3.69,2.05c-.77,0-1.53-.22-2.29-.66Z"/>
    <path class="cls-1" d="M1306.58,628.46c-.76-2.95-.9-5.92-.41-8.93.49-3,1.34-5.73,2.54-8.19,1.2-2.46,2.62-4.45,4.26-5.98,1.64-1.53,3.22-2.29,4.75-2.29,1.75,0,3.17,1.09,4.26,3.28.22.66.05,1.15-.49,1.47-.44.22-.9.11-1.39-.33-.49-.44-1.12-.66-1.88-.66-.55,0-1.15.33-1.8.98-.66.66-1.42,1.91-2.29,3.77-.55,1.09-1.09,2.4-1.64,3.93-.55,1.53-.98,3.11-1.31,4.75s-.52,3.25-.57,4.83c-.06,1.58.14,2.98.57,4.18,1.31-.98,2.65-2.62,4.01-4.92,1.36-2.29,2.65-4.72,3.85-7.29,1.2-2.57,2.35-5.05,3.44-7.45,1.09-2.4,1.97-4.2,2.62-5.41.98-1.86,2.18-2.79,3.6-2.79.66,0,1.2.38,1.64,1.15.43.77.55,2.08.33,3.93,0,1.2-.14,3.09-.41,5.65-.27,2.57-.49,5.24-.66,8.03-.16,2.79-.22,5.43-.16,7.95.05,2.51.41,4.26,1.06,5.24.33.44.71.66,1.15.66.98,0,2.27-.68,3.85-2.05,1.58-1.36,3.19-3.03,4.83-5,1.64-1.97,3.19-4.04,4.67-6.23,1.47-2.18,2.54-4.1,3.19-5.73.22-.55.6-.71,1.15-.49.66.22.76.66.33,1.31-.11.11-.49.74-1.15,1.88-.66,1.15-1.47,2.54-2.46,4.18-.98,1.64-2.1,3.39-3.36,5.24-1.26,1.86-2.57,3.55-3.93,5.08-1.37,1.53-2.7,2.81-4.01,3.85-1.31,1.04-2.57,1.56-3.77,1.56-1.97,0-3.39-1.53-4.26-4.59-.55-1.75-.85-3.77-.9-6.06-.06-2.29,0-4.64.16-7.04.16-2.4.38-4.72.66-6.96.27-2.24.46-4.18.57-5.82-.98,1.64-1.97,3.44-2.95,5.41-.98,1.97-1.99,3.96-3.03,5.98-1.04,2.02-2.05,3.99-3.03,5.9-.98,1.91-1.91,3.52-2.78,4.83-.88,1.31-1.72,2.27-2.54,2.87-.82.6-1.56.9-2.21.9-1.86,0-3.22-1.53-4.1-4.59Z"/>
    <path class="cls-1" d="M1352.62,600.78c-.66.66-1.31.98-1.97.98-.98,0-1.78-.49-2.38-1.47-.6-.98-.47-1.97.41-2.95.55-.55,1.75-1.01,3.6-1.39,1.86-.38,4.04-.71,6.55-.98,2.51-.27,5.19-.46,8.03-.57,2.84-.11,5.51-.16,8.03-.16s4.69.03,6.55.08c1.86.06,3,.19,3.44.41.11,0,.27.06.49.16.33.33.55.71.66,1.15.22.77.14,1.37-.25,1.8-.38.44-1.06,1.09-2.05,1.97-2.29,2.29-4.94,4.94-7.95,7.95-3.01,3.01-6.04,6.12-9.09,9.34-3.06,3.22-5.93,6.45-8.6,9.67-2.68,3.22-4.94,6.2-6.8,8.93,7.43-1.31,13.27-2.29,17.53-2.95,4.26-.66,7.48-.98,9.67-.98,1.64,0,2.73.19,3.28.57.55.38.76.9.66,1.56-.22,1.2-.88,1.69-1.97,1.47-.22-.11-.82-.38-1.8-.82-.98-.44-2.84-.66-5.57-.66-2.29,0-5.41.33-9.34.98-3.93.66-8.9,1.97-14.91,3.93-.44.22-.82.19-1.15-.08s-.49-.63-.49-1.06c0-1.64.63-3.58,1.88-5.82,1.25-2.24,2.87-4.64,4.83-7.21,1.97-2.57,4.18-5.19,6.64-7.86,2.46-2.68,4.86-5.21,7.21-7.62,2.35-2.4,4.56-4.56,6.64-6.47,2.07-1.91,3.71-3.41,4.91-4.51-1.42-.11-3.41-.22-5.98-.33-2.57-.11-5.24-.14-8.03-.08-2.78.06-5.35.33-7.7.82-2.35.49-4.01,1.23-5,2.21Z"/>
  </g>
  <g>
    <path class="cls-1" d="M331.2,306.01v-50.62h7.23v44.33h27.41v6.29h-34.64Z"/>
    <path class="cls-1" d="M377.78,306.01v-50.62h35.73v6.29h-28.49v38.04h29.51v6.29h-36.74ZM384.36,283.38v-6.15h26.03v6.15h-26.03Z"/>
    <path class="cls-1" d="M439.9,306.01v-44.33h-17.36v-6.29h41.87v6.29h-17.36v44.33h-7.16Z"/>
    <path class="cls-1" d="M474.1,272.1l3.62-14.68.94,4.19c-1.4,0-2.57-.43-3.51-1.3s-1.41-2.02-1.41-3.47.47-2.69,1.41-3.58c.94-.89,2.08-1.34,3.43-1.34s2.53.47,3.4,1.41c.87.94,1.3,2.11,1.3,3.51,0,.43-.02.88-.07,1.34-.05.46-.16.98-.33,1.55-.17.58-.42,1.33-.76,2.24l-3.47,10.12h-4.56Z"/>
    <path class="cls-1" d="M513.37,306.59c-3.86,0-7.55-.59-11.06-1.77-3.52-1.18-6.29-2.71-8.32-4.59l2.68-5.64c1.93,1.69,4.39,3.09,7.38,4.19,2.99,1.11,6.1,1.66,9.33,1.66,2.94,0,5.33-.34,7.16-1.01,1.83-.67,3.18-1.6,4.05-2.78.87-1.18,1.3-2.52,1.3-4.01,0-1.74-.57-3.13-1.7-4.19-1.13-1.06-2.6-1.92-4.41-2.57-1.81-.65-3.8-1.22-5.97-1.7-2.17-.48-4.35-1.05-6.54-1.7-2.19-.65-4.19-1.48-6-2.49-1.81-1.01-3.27-2.37-4.37-4.09-1.11-1.71-1.66-3.92-1.66-6.62s.69-5,2.06-7.2c1.37-2.19,3.49-3.95,6.36-5.28,2.87-1.33,6.52-1.99,10.96-1.99,2.94,0,5.86.39,8.75,1.16,2.89.77,5.4,1.88,7.52,3.33l-2.39,5.79c-2.17-1.45-4.46-2.49-6.87-3.15-2.41-.65-4.75-.98-7.01-.98-2.85,0-5.18.36-7.01,1.08-1.83.72-3.17,1.69-4.01,2.89-.84,1.21-1.27,2.56-1.27,4.05,0,1.78.57,3.21,1.7,4.27,1.13,1.06,2.6,1.91,4.41,2.53,1.81.63,3.8,1.19,5.97,1.7,2.17.51,4.35,1.07,6.54,1.7,2.19.63,4.19,1.45,6,2.46,1.81,1.01,3.27,2.36,4.37,4.05,1.11,1.69,1.66,3.86,1.66,6.51s-.7,4.93-2.1,7.12c-1.4,2.19-3.56,3.95-6.47,5.28-2.92,1.33-6.59,1.99-11.03,1.99Z"/>
  </g>
</svg>